<?xml version="1.0" encoding="UTF-8" standalone="no"?>
<!-- Created with Inkscape (http://www.inkscape.org/) -->

<svg
   xmlns:osb="http://www.openswatchbook.org/uri/2009/osb"
   xmlns:dc="http://purl.org/dc/elements/1.1/"
   xmlns:cc="http://creativecommons.org/ns#"
   xmlns:rdf="http://www.w3.org/1999/02/22-rdf-syntax-ns#"
   xmlns:svg="http://www.w3.org/2000/svg"
   xmlns="http://www.w3.org/2000/svg"
   xmlns:xlink="http://www.w3.org/1999/xlink"
   xmlns:sodipodi="http://sodipodi.sourceforge.net/DTD/sodipodi-0.dtd"
   xmlns:inkscape="http://www.inkscape.org/namespaces/inkscape"
   sodipodi:docname="sig-proc-conserv-2.svg"
   inkscape:version="0.48.5 r10040"
   version="1.1"
   id="svg2"
   height="325.40121"
   width="268.03311"
   inkscape:export-filename="/Users/aziz/Dropbox (MIT)/www/optimization/assets/img/overview/sig-proc-conserv-2.png"
   inkscape:export-xdpi="400"
   inkscape:export-ydpi="400">
  <sodipodi:namedview
     id="base"
     pagecolor="#ffffff"
     bordercolor="#666666"
     borderopacity="1.0"
     inkscape:pageopacity="0.0"
     inkscape:pageshadow="2"
     inkscape:zoom="0.99999998"
     inkscape:cx="182.88688"
     inkscape:cy="177.06788"
     inkscape:document-units="px"
     inkscape:current-layer="g13867"
     showgrid="false"
     inkscape:window-width="1280"
     inkscape:window-height="718"
     inkscape:window-x="0"
     inkscape:window-y="0"
     inkscape:window-maximized="1"
     fit-margin-top="0"
     fit-margin-left="0"
     fit-margin-right="0"
     fit-margin-bottom="0"
     showguides="true"
     inkscape:guide-bbox="true"
     inkscape:object-nodes="true" />
  <defs
     id="defs4">
    <linearGradient
       osb:paint="solid"
       id="linearGradient4177">
      <stop
         id="stop4179"
         offset="0"
         style="stop-color:#000000;stop-opacity:1;" />
    </linearGradient>
    <marker
       style="overflow:visible"
       id="Arrow1Mstart"
       refX="0"
       refY="0"
       orient="auto"
       inkscape:stockid="Arrow1Mstart">
      <path
         inkscape:connector-curvature="0"
         transform="matrix(0.4,0,0,0.4,4,0)"
         style="fill-rule:evenodd;stroke:#000000;stroke-width:1pt"
         d="M 0,0 5,-5 -12.5,0 5,5 0,0 z"
         id="path6947" />
    </marker>
    <marker
       style="overflow:visible"
       id="Arrow1Mend"
       refX="0"
       refY="0"
       orient="auto"
       inkscape:stockid="Arrow1Mend">
      <path
         inkscape:connector-curvature="0"
         transform="matrix(-0.4,0,0,-0.4,-4,0)"
         style="fill-rule:evenodd;stroke:#000000;stroke-width:1pt"
         d="M 0,0 5,-5 -12.5,0 5,5 0,0 z"
         id="path6950" />
    </marker>
    <marker
       style="overflow:visible"
       id="Arrow1Lend"
       refX="0"
       refY="0"
       orient="auto"
       inkscape:stockid="Arrow1Lend">
      <path
         inkscape:connector-curvature="0"
         transform="matrix(-0.8,0,0,-0.8,-10,0)"
         style="fill-rule:evenodd;stroke:#000000;stroke-width:1pt"
         d="M 0,0 5,-5 -12.5,0 5,5 0,0 z"
         id="path6944" />
    </marker>
    <linearGradient
       inkscape:collect="always"
       xlink:href="#linearGradient4177"
       id="linearGradient3460"
       gradientUnits="userSpaceOnUse"
       gradientTransform="translate(227.52852,1354.7188)"
       x1="-69.358574"
       y1="407.49835"
       x2="-55.85857"
       y2="407.49835" />
    <linearGradient
       inkscape:collect="always"
       xlink:href="#linearGradient4177"
       id="linearGradient3548"
       gradientUnits="userSpaceOnUse"
       gradientTransform="translate(251.52852,1354.7188)"
       x1="-69.358574"
       y1="407.49835"
       x2="-55.85857"
       y2="407.49835" />
    <marker
       style="overflow:visible"
       id="marker3541"
       refX="0"
       refY="0"
       orient="auto"
       inkscape:stockid="Arrow1Mend">
      <path
         inkscape:connector-curvature="0"
         transform="matrix(-0.4,0,0,-0.4,-4,0)"
         style="fill-rule:evenodd;stroke:#000000;stroke-width:1pt"
         d="M 0,0 5,-5 -12.5,0 5,5 0,0 z"
         id="path3543" />
    </marker>
    <marker
       style="overflow:visible"
       id="Arrow1Mstart-6"
       refX="0"
       refY="0"
       orient="auto"
       inkscape:stockid="Arrow1Mstart">
      <path
         inkscape:connector-curvature="0"
         transform="matrix(0.4,0,0,0.4,4,0)"
         style="fill-rule:evenodd;stroke:#000000;stroke-width:1pt"
         d="M 0,0 5,-5 -12.5,0 5,5 0,0 z"
         id="path6947-0" />
    </marker>
    <marker
       style="overflow:visible"
       id="marker3535"
       refX="0"
       refY="0"
       orient="auto"
       inkscape:stockid="Arrow1Mend">
      <path
         inkscape:connector-curvature="0"
         transform="matrix(-0.4,0,0,-0.4,-4,0)"
         style="fill-rule:evenodd;stroke:#000000;stroke-width:1pt"
         d="M 0,0 5,-5 -12.5,0 5,5 0,0 z"
         id="path3537" />
    </marker>
    <marker
       style="overflow:visible"
       id="marker3531"
       refX="0"
       refY="0"
       orient="auto"
       inkscape:stockid="Arrow1Mend">
      <path
         inkscape:connector-curvature="0"
         transform="matrix(-0.4,0,0,-0.4,-4,0)"
         style="fill-rule:evenodd;stroke:#000000;stroke-width:1pt"
         d="M 0,0 5,-5 -12.5,0 5,5 0,0 z"
         id="path3533" />
    </marker>
    <marker
       style="overflow:visible"
       id="marker3527"
       refX="0"
       refY="0"
       orient="auto"
       inkscape:stockid="Arrow1Mend">
      <path
         inkscape:connector-curvature="0"
         transform="matrix(-0.4,0,0,-0.4,-4,0)"
         style="fill-rule:evenodd;stroke:#000000;stroke-width:1pt"
         d="M 0,0 5,-5 -12.5,0 5,5 0,0 z"
         id="path3529" />
    </marker>
    <marker
       style="overflow:visible"
       id="marker3523"
       refX="0"
       refY="0"
       orient="auto"
       inkscape:stockid="Arrow1Mend">
      <path
         inkscape:connector-curvature="0"
         transform="matrix(-0.4,0,0,-0.4,-4,0)"
         style="fill-rule:evenodd;stroke:#000000;stroke-width:1pt"
         d="M 0,0 5,-5 -12.5,0 5,5 0,0 z"
         id="path3525" />
    </marker>
    <marker
       style="overflow:visible"
       id="Arrow1Mend-3"
       refX="0"
       refY="0"
       orient="auto"
       inkscape:stockid="Arrow1Mend">
      <path
         inkscape:connector-curvature="0"
         transform="matrix(-0.4,0,0,-0.4,-4,0)"
         style="fill-rule:evenodd;stroke:#000000;stroke-width:1pt"
         d="M 0,0 5,-5 -12.5,0 5,5 0,0 z"
         id="path6950-3" />
    </marker>
    <marker
       style="overflow:visible"
       id="marker3541-4"
       refX="0"
       refY="0"
       orient="auto"
       inkscape:stockid="Arrow1Mend">
      <path
         inkscape:connector-curvature="0"
         transform="matrix(-0.4,0,0,-0.4,-4,0)"
         style="fill-rule:evenodd;stroke:#000000;stroke-width:1pt"
         d="M 0,0 5,-5 -12.5,0 5,5 0,0 z"
         id="path3543-0" />
    </marker>
    <marker
       style="overflow:visible"
       id="Arrow1Mstart-4"
       refX="0"
       refY="0"
       orient="auto"
       inkscape:stockid="Arrow1Mstart">
      <path
         inkscape:connector-curvature="0"
         transform="matrix(0.4,0,0,0.4,4,0)"
         style="fill-rule:evenodd;stroke:#000000;stroke-width:1pt"
         d="M 0,0 5,-5 -12.5,0 5,5 0,0 z"
         id="path6947-5" />
    </marker>
    <marker
       style="overflow:visible"
       id="marker3535-1"
       refX="0"
       refY="0"
       orient="auto"
       inkscape:stockid="Arrow1Mend">
      <path
         inkscape:connector-curvature="0"
         transform="matrix(-0.4,0,0,-0.4,-4,0)"
         style="fill-rule:evenodd;stroke:#000000;stroke-width:1pt"
         d="M 0,0 5,-5 -12.5,0 5,5 0,0 z"
         id="path3537-2" />
    </marker>
    <marker
       style="overflow:visible"
       id="marker3531-4"
       refX="0"
       refY="0"
       orient="auto"
       inkscape:stockid="Arrow1Mend">
      <path
         inkscape:connector-curvature="0"
         transform="matrix(-0.4,0,0,-0.4,-4,0)"
         style="fill-rule:evenodd;stroke:#000000;stroke-width:1pt"
         d="M 0,0 5,-5 -12.5,0 5,5 0,0 z"
         id="path3533-3" />
    </marker>
    <marker
       style="overflow:visible"
       id="marker3527-9"
       refX="0"
       refY="0"
       orient="auto"
       inkscape:stockid="Arrow1Mend">
      <path
         inkscape:connector-curvature="0"
         transform="matrix(-0.4,0,0,-0.4,-4,0)"
         style="fill-rule:evenodd;stroke:#000000;stroke-width:1pt"
         d="M 0,0 5,-5 -12.5,0 5,5 0,0 z"
         id="path3529-8" />
    </marker>
    <marker
       style="overflow:visible"
       id="marker3523-9"
       refX="0"
       refY="0"
       orient="auto"
       inkscape:stockid="Arrow1Mend">
      <path
         inkscape:connector-curvature="0"
         transform="matrix(-0.4,0,0,-0.4,-4,0)"
         style="fill-rule:evenodd;stroke:#000000;stroke-width:1pt"
         d="M 0,0 5,-5 -12.5,0 5,5 0,0 z"
         id="path3525-2" />
    </marker>
    <marker
       style="overflow:visible"
       id="Arrow1Mend-0"
       refX="0"
       refY="0"
       orient="auto"
       inkscape:stockid="Arrow1Mend">
      <path
         inkscape:connector-curvature="0"
         transform="matrix(-0.4,0,0,-0.4,-4,0)"
         style="fill-rule:evenodd;stroke:#000000;stroke-width:1pt"
         d="M 0,0 5,-5 -12.5,0 5,5 0,0 z"
         id="path6950-2" />
    </marker>
  </defs>
  <metadata
     id="metadata7">
    <rdf:RDF>
      <cc:Work
         rdf:about="">
        <dc:format>image/svg+xml</dc:format>
        <dc:type
           rdf:resource="http://purl.org/dc/dcmitype/StillImage" />
        <dc:title></dc:title>
      </cc:Work>
    </rdf:RDF>
  </metadata>
  <g
     transform="translate(1265.1952,-444.04662)"
     id="layer1"
     inkscape:groupmode="layer"
     inkscape:label="Layer 1">
    <g
       transform="matrix(0.73111395,0,0,0.73111395,-394.14883,850.15751)"
       id="g10183" />
    <g
       id="g13867">
      <g
         style="fill:#000000;fill-opacity:0.36000001;stroke:none"
         id="g4605" />
      <g
         id="g3141"
         transform="translate(-404.46509,0)">
        <g
           id="g3145"
           transform="matrix(0.72986633,0,0,0.72986633,-689.9978,437.06597)">
          <g
             id="g3147"
             transform="matrix(1.0629921,0,0,-1.0629921,-186.02362,789.27165)"
             xml:space="preserve"
             stroke-miterlimit="10.433"
             font-style="normal"
             font-variant="normal"
             font-weight="normal"
             font-stretch="normal"
             font-size-adjust="none"
             letter-spacing="normal"
             word-spacing="normal"
             style="font-style:normal;font-variant:normal;font-weight:normal;font-stretch:normal;letter-spacing:normal;word-spacing:normal;text-anchor:start;fill:none;stroke:#000000;stroke-linecap:butt;stroke-linejoin:miter;stroke-miterlimit:10.43299961;stroke-opacity:1;stroke-dasharray:none;stroke-dashoffset:0" />        </g>
      </g>
      <g
         transform="translate(-768.57041,340.89429)"
         id="g3151">
        <g
           style="font-style:normal;font-variant:normal;font-weight:normal;font-stretch:normal;letter-spacing:normal;word-spacing:normal;text-anchor:start;fill:none;stroke:#000000;stroke-linecap:butt;stroke-linejoin:miter;stroke-miterlimit:10.43299961;stroke-opacity:1;stroke-dasharray:none;stroke-dashoffset:0"
           id="g3153"
           transform="matrix(1.0629921,0,0,-1.0629921,-186.02362,789.27165)"
           xml:space="preserve"
           stroke-miterlimit="10.433"
           font-style="normal"
           font-variant="normal"
           font-weight="normal"
           font-stretch="normal"
           font-size-adjust="none"
           letter-spacing="normal"
           word-spacing="normal" />      </g>
      <g
         id="g3157"
         transform="translate(-404.46509,0)" />
      <g
         transform="translate(204.41508,0)"
         id="g3221" />
      <g
         transform="translate(-404.46509,0)"
         id="g3261">
        <g
           transform="matrix(0.72986633,0,0,0.72986633,-689.9978,437.06597)"
           id="g3265">
          <g
             style="font-style:normal;font-variant:normal;font-weight:normal;font-stretch:normal;letter-spacing:normal;word-spacing:normal;text-anchor:start;fill:none;stroke:#000000;stroke-linecap:butt;stroke-linejoin:miter;stroke-miterlimit:10.43299961;stroke-opacity:1;stroke-dasharray:none;stroke-dashoffset:0"
             word-spacing="normal"
             letter-spacing="normal"
             font-size-adjust="none"
             font-stretch="normal"
             font-weight="normal"
             font-variant="normal"
             font-style="normal"
             stroke-miterlimit="10.433"
             xml:space="preserve"
             transform="matrix(1.0629921,0,0,-1.0629921,-186.02362,789.27165)"
             id="g3267" />        </g>
      </g>
      <g
         id="g3271"
         transform="translate(-768.57041,340.89429)">
        <g
           word-spacing="normal"
           letter-spacing="normal"
           font-size-adjust="none"
           font-stretch="normal"
           font-weight="normal"
           font-variant="normal"
           font-style="normal"
           stroke-miterlimit="10.433"
           xml:space="preserve"
           transform="matrix(1.0629921,0,0,-1.0629921,-186.02362,789.27165)"
           id="g3273"
           style="font-style:normal;font-variant:normal;font-weight:normal;font-stretch:normal;letter-spacing:normal;word-spacing:normal;text-anchor:start;fill:none;stroke:#000000;stroke-linecap:butt;stroke-linejoin:miter;stroke-miterlimit:10.43299961;stroke-opacity:1;stroke-dasharray:none;stroke-dashoffset:0" />      </g>
      <g
         transform="translate(-404.46509,0)"
         id="g3277" />
      <g
         transform="matrix(0.64,0,0,0.64,-990.79799,81.794506)"
         id="g10514">
        <g
           transform="translate(55.795145,0)"
           id="g10478">
          <rect
             transform="scale(1,-1)"
             style="fill:#c8c8c8;fill-opacity:1;stroke:#000000;stroke-width:4.61615181;stroke-linecap:butt;stroke-linejoin:miter;stroke-miterlimit:4;stroke-opacity:1;stroke-dasharray:none;stroke-dashoffset:0"
             id="rect3229"
             width="119.23011"
             height="56.291225"
             x="-482.2327"
             y="-716.85168"
             rx="17.761597"
             ry="17.761597" />
          <g
             id="g4235"
             transform="matrix(2.1711617,0,0,2.1711617,-661.55787,88.180584)">
            <g
               id="g4237"
               transform="matrix(0.33320341,0,0,-0.33320341,-58.310597,417.38283)"
               xml:space="preserve"
               stroke-miterlimit="10.433"
               font-style="normal"
               font-variant="normal"
               font-weight="normal"
               font-stretch="normal"
               font-size-adjust="none"
               letter-spacing="normal"
               word-spacing="normal"
               style="font-style:normal;font-variant:normal;font-weight:normal;font-stretch:normal;letter-spacing:normal;word-spacing:normal;text-anchor:start;fill:none;stroke:#000000;stroke-width:0.71966082;stroke-linecap:butt;stroke-linejoin:miter;stroke-miterlimit:10.43299961;stroke-opacity:1;stroke-dasharray:none;stroke-dashoffset:0"><path
                 d="m 458.32,423.23 0.02,-0.96 0.07,-0.94 0.11,-0.93 0.16,-0.91 0.2,-0.89 0.24,-0.87 0.28,-0.85 0.32,-0.83 0.36,-0.81 0.39,-0.78 0.43,-0.76 0.46,-0.74 0.49,-0.7 0.52,-0.68 0.55,-0.66 0.59,-0.62 0.6,-0.59 0.64,-0.56 0.66,-0.53 0.68,-0.5 0.7,-0.46 0.73,-0.43 0.74,-0.39 0.77,-0.35 0.78,-0.32 0.79,-0.28 0.82,-0.23 0.82,-0.2 0.84,-0.15 0.84,-0.11 0.86,-0.07 0.86,-0.02 c 8.13,0 13,6.92 13,12.7 0,0.5 0,0.84 -0.64,0.84 -0.54,0 -0.54,-0.29 -0.59,-0.79 -0.41,-7.13 -5.73,-11.21 -11.17,-11.21 -3.03,0 -12.8,1.69 -12.8,16.53 0,14.91 9.72,16.6 12.75,16.6 5.44,0 9.88,-4.53 10.86,-11.82 0.11,-0.68 0.11,-0.84 0.8,-0.84 0.79,0 0.79,0.16 0.79,1.2 v 11.8 c 0,0.86 0,1.2 -0.54,1.2 -0.19,0 -0.39,0 -0.8,-0.59 l -2.48,-3.69 c -1.85,1.8 -4.39,4.28 -9.18,4.28 -9.31,0 -17.32,-7.92 -17.32,-18.09 z"
                 id="path4239"
                 inkscape:connector-curvature="0"
                 style="fill:#000000;stroke-width:0" /><path
                 d="m 513.19,423.14 0.45,0.12 0.44,0.12 0.44,0.14 0.43,0.15 0.42,0.16 0.42,0.17 0.4,0.18 0.4,0.19 0.39,0.19 0.37,0.21 0.37,0.22 0.35,0.22 0.34,0.23 0.33,0.24 0.32,0.25 0.3,0.26 0.29,0.27 0.27,0.27 0.26,0.28 0.24,0.29 0.23,0.29 0.21,0.31 0.19,0.3 0.18,0.32 0.15,0.32 0.14,0.33 0.12,0.33 0.09,0.35 0.08,0.34 0.06,0.35 0.03,0.36 0.01,0.36 c 0,4.78 -5.67,8.97 -13,8.97 h -15.64 v -1.55 h 1.19 c 3.84,0 3.93,-0.54 3.93,-2.34 v -26.25 c 0,-1.8 -0.09,-2.34 -3.93,-2.34 h -1.19 v -1.55 c 1.78,0.16 5.33,0.16 7.27,0.16 1.93,0 5.48,0 7.28,-0.16 v 1.55 h -1.21 c -3.82,0 -3.93,0.54 -3.93,2.34 v 12.59 1.11 12.89 c 0,1.16 0,1.75 1.09,1.91 0.5,0.09 1.95,0.09 2.95,0.09 4.47,0 10.06,-0.2 10.06,-7.42 0,-3.44 -1.2,-7.47 -8.57,-7.47 h -5.53 v -1.11 h 5.73 c 0.8,0 2.89,0 4.62,-1.68 1.91,-1.8 1.91,-3.35 1.91,-6.68 0,-3.25 0,-5.23 2.03,-7.12 2.05,-1.8 4.78,-2.09 6.28,-2.09 3.9,0 4.74,4.07 4.74,5.48 0,0.3 0,0.84 -0.64,0.84 -0.55,0 -0.55,-0.45 -0.61,-0.79 -0.3,-3.55 -2.03,-4.44 -3.28,-4.44 -2.44,0 -2.85,2.55 -3.55,7.17 l -0.64,3.99 c -0.89,3.18 -3.34,4.84 -6.08,5.78 z"
                 id="path4241"
                 inkscape:connector-curvature="0"
                 style="fill:#000000;stroke-width:0" /><path
                 d="m 542.88,438.09 0,0.05 0,0.06 0,0.05 0,0.05 0,0.05 0,0.05 0,0.04 0,0.05 0,0.04 -0.01,0.04 0,0.04 0,0.04 0,0.04 0,0.03 -0.01,0.04 0,0.03 -0.01,0.07 -0.01,0.06 -0.01,0.05 -0.01,0.05 -0.02,0.05 -0.02,0.04 -0.02,0.04 -0.02,0.03 -0.03,0.03 -0.03,0.03 -0.04,0.03 -0.04,0.02 -0.04,0.02 -0.03,0.01 -0.02,0.01 -0.03,0 -0.02,0.01 -0.03,0.01 -0.03,0 -0.03,0.01 -0.04,0 -0.03,0.01 -0.03,0 -0.04,0 -0.04,0.01 -0.04,0 -0.04,0 -0.04,0 -0.04,0 -0.04,0 -0.05,0.01 -0.05,0 -0.05,0 -0.05,0 -0.05,0 c -3.09,-3.19 -7.47,-3.19 -9.06,-3.19 v -1.55 c 1,0 3.93,0 6.51,1.3 v -25.81 c 0,-1.8 -0.14,-2.39 -4.62,-2.39 h -1.6 v -1.55 c 1.75,0.16 6.08,0.16 8.06,0.16 2,0 6.33,0 8.08,-0.16 v 1.55 h -1.59 c -4.49,0 -4.64,0.54 -4.64,2.39 z"
                 id="path4243"
                 inkscape:connector-curvature="0"
                 style="fill:#000000;stroke-width:0" /></g>          </g>
        </g>
        <g
           id="g10488">
          <rect
             ry="0"
             rx="0"
             y="568.36267"
             x="-271.19824"
             height="71.720703"
             width="91.789291"
             id="rect3177"
             style="fill:#c8c8c8;fill-opacity:1;stroke:#000000;stroke-width:4.6875;stroke-linecap:butt;stroke-linejoin:miter;stroke-miterlimit:4;stroke-opacity:1;stroke-dasharray:none;stroke-dashoffset:0" />
          <path
             sodipodi:nodetypes="cc"
             inkscape:connector-curvature="0"
             id="path3185"
             d="m -72.312008,716.78894 0,55.13824"
             style="fill:none;stroke:#000000;stroke-width:4.6875;stroke-linecap:butt;stroke-linejoin:miter;stroke-miterlimit:4;stroke-opacity:1;stroke-dasharray:none;marker-end:none" />
          <rect
             ry="14.636597"
             rx="14.636597"
             y="-716.85168"
             x="-131.64032"
             height="56.291225"
             width="119.23011"
             id="rect3187"
             style="fill:#c8c8c8;fill-opacity:1;stroke:#000000;stroke-width:4.61615181;stroke-linecap:butt;stroke-linejoin:miter;stroke-miterlimit:4;stroke-opacity:1;stroke-dasharray:none;stroke-dashoffset:0"
             transform="scale(1,-1)" />
          <path
             style="fill:none;stroke:#000000;stroke-width:4.6875;stroke-linecap:butt;stroke-linejoin:miter;stroke-miterlimit:4;stroke-opacity:1;stroke-dasharray:none;marker-end:url(#Arrow1Mend)"
             d="m -72.252128,600.42942 0,53.3513"
             id="path3189"
             inkscape:connector-curvature="0"
             sodipodi:nodetypes="cc" />
          <path
             sodipodi:nodetypes="cc"
             inkscape:connector-curvature="0"
             id="path3191"
             d="m -169.67805,770.82619 98.303445,0"
             style="fill:none;stroke:#000000;stroke-width:4.6875;stroke-linecap:butt;stroke-linejoin:miter;stroke-miterlimit:4;stroke-opacity:1;stroke-dasharray:none;marker-start:url(#Arrow1Mstart);marker-end:none" />
          <path
             style="fill:none;stroke:#000000;stroke-width:4.6875;stroke-linecap:butt;stroke-linejoin:miter;stroke-miterlimit:4;stroke-opacity:1;stroke-dasharray:none;marker-start:none;marker-end:none"
             d="m -369.10426,770.82619 97.05523,0"
             id="path3193"
             inkscape:connector-curvature="0"
             sodipodi:nodetypes="cc" />
          <path
             sodipodi:nodetypes="cc"
             inkscape:connector-curvature="0"
             id="path3195"
             d="m -178.00306,601.93991 106.370229,0"
             style="fill:none;stroke:#000000;stroke-width:4.6875;stroke-linecap:butt;stroke-linejoin:miter;stroke-miterlimit:4;stroke-opacity:1;stroke-dasharray:none;marker-end:none" />
          <path
             style="fill:none;stroke:#000000;stroke-width:4.6875;stroke-linecap:butt;stroke-linejoin:miter;stroke-miterlimit:4;stroke-opacity:1;stroke-dasharray:none;marker-start:url(#Arrow1Mstart-4);marker-end:none"
             d="m -368.49086,725.92079 0,46.38139"
             id="path3197"
             inkscape:connector-curvature="0"
             sodipodi:nodetypes="cc" />
          <path
             style="fill:none;stroke:#000000;stroke-width:4.6875;stroke-linecap:butt;stroke-linejoin:miter;stroke-miterlimit:4;stroke-opacity:1;stroke-dasharray:none;marker-end:url(#Arrow1Mend-0)"
             d="m -369.44363,601.93991 87.25123,0"
             id="path3203"
             inkscape:connector-curvature="0"
             sodipodi:nodetypes="cc" />
          <rect
             style="fill:#c8c8c8;fill-opacity:1;stroke:#000000;stroke-width:4.6875;stroke-linecap:butt;stroke-linejoin:miter;stroke-miterlimit:4;stroke-opacity:1;stroke-dasharray:none;stroke-dashoffset:0"
             id="rect3227"
             width="91.789291"
             height="71.720703"
             x="-271.19824"
             y="730.99725"
             rx="0"
             ry="0" />
          <path
             style="fill:none;stroke:#000000;stroke-width:4.6875;stroke-linecap:butt;stroke-linejoin:miter;stroke-miterlimit:4;stroke-opacity:1;stroke-dasharray:none;marker-end:none"
             d="m -368.73492,600.436 0,59.14215"
             id="path3231"
             inkscape:connector-curvature="0"
             sodipodi:nodetypes="cc" />
          <g
             id="g3542"
             transform="matrix(2.6250491,0,0,2.6250491,-489.42411,-123.27694)">
            <g
               id="content"
               transform="matrix(0.33320341,0,0,-0.33320341,-58.310597,417.38283)"
               xml:space="preserve"
               stroke-miterlimit="10.433"
               font-style="normal"
               font-variant="normal"
               font-weight="normal"
               font-stretch="normal"
               font-size-adjust="none"
               letter-spacing="normal"
               word-spacing="normal"
               style="font-style:normal;font-variant:normal;font-weight:normal;font-stretch:normal;letter-spacing:normal;word-spacing:normal;text-anchor:start;fill:none;stroke:#000000;stroke-width:0.59522694;stroke-linecap:butt;stroke-linejoin:miter;stroke-miterlimit:10.43299961;stroke-opacity:1;stroke-dasharray:none;stroke-dashoffset:0"><path
                 d="m 464.44,411.93 -0.19,-0.3 -0.18,-0.29 -0.19,-0.28 -0.19,-0.26 -0.18,-0.25 -0.19,-0.23 -0.19,-0.22 -0.18,-0.21 -0.19,-0.2 -0.19,-0.18 -0.18,-0.17 -0.19,-0.16 -0.19,-0.15 -0.18,-0.14 -0.19,-0.13 -0.19,-0.12 -0.19,-0.11 -0.19,-0.1 -0.19,-0.09 -0.19,-0.09 -0.19,-0.07 -0.2,-0.07 -0.19,-0.07 -0.2,-0.05 -0.19,-0.05 -0.2,-0.04 -0.2,-0.04 -0.19,-0.03 -0.41,-0.05 -0.4,-0.03 c -0.61,-0.05 -1.05,-0.05 -1.05,-1 0,-0.3 0.25,-0.55 0.64,-0.55 1.34,0 2.89,0.16 4.28,0.16 1.64,0 3.39,-0.16 4.99,-0.16 0.29,0 0.95,0 0.95,0.95 0,0.55 -0.45,0.6 -0.8,0.6 -1.15,0.09 -2.34,0.5 -2.34,1.73 0,0.61 0.3,1.16 0.69,1.84 l 3.79,6.39 h 12.5 l -0.14,1.54 h -11.42 l 9.83,16.45 1.59,-16.45 0.14,-1.54 c 0.11,-1.04 0.8,-7.82 0.8,-8.32 0,-1.5 -2.59,-1.64 -3.58,-1.64 -0.7,0 -1.2,0 -1.2,-1 0,-0.55 0.59,-0.55 0.7,-0.55 2.03,0 4.19,0.16 6.22,0.16 1.25,0 4.39,-0.16 5.64,-0.16 0.3,0 0.89,0 0.89,1 0,0.55 -0.5,0.55 -1.14,0.55 -3.09,0 -3.09,0.34 -3.25,1.79 l -3.03,31.13 c -0.11,1 -0.11,1.2 -0.95,1.2 -0.8,0 -0.99,-0.34 -1.3,-0.84 z"
                 id="path3545"
                 inkscape:connector-curvature="0"
                 style="fill:#000000;stroke-width:0" /></g>          </g>
          <g
             id="g3881"
             transform="matrix(1.9612397,0,0,1.9612397,-442.275,226.35984)">
            <g
               word-spacing="normal"
               letter-spacing="normal"
               font-size-adjust="none"
               font-stretch="normal"
               font-weight="normal"
               font-variant="normal"
               font-style="normal"
               stroke-miterlimit="10.433"
               xml:space="preserve"
               transform="matrix(0.33320341,0,0,-0.33320341,-58.310597,417.38283)"
               id="g3883"
               style="font-style:normal;font-variant:normal;font-weight:normal;font-stretch:normal;letter-spacing:normal;word-spacing:normal;text-anchor:start;fill:none;stroke:#000000;stroke-width:0.79668999;stroke-linecap:butt;stroke-linejoin:miter;stroke-miterlimit:10.43299961;stroke-opacity:1;stroke-dasharray:none;stroke-dashoffset:0"><path
                 id="path3885"
                 d="m 488.35,417.65 0.16,0 0.16,0 0.15,0.01 0.08,0 0.08,0.01 0.07,0 0.08,0.01 0.07,0.01 0.07,0.01 0.07,0.02 0.07,0.02 0.07,0.02 0.06,0.02 0.06,0.02 0.06,0.03 0.05,0.03 0.06,0.04 0.05,0.03 0.04,0.05 0.04,0.04 0.04,0.05 0.02,0.03 0.02,0.03 0.01,0.03 0.02,0.03 0.01,0.03 0.02,0.03 0.01,0.04 0.01,0.03 0.01,0.04 0,0.04 0.01,0.04 0.01,0.04 0,0.04 0.01,0.04 0,0.05 0,0.04 c 0,1 -0.91,1 -1.75,1 h -26.96 c -0.84,0 -1.73,0 -1.73,-1 0,-1 0.89,-1 1.73,-1 z"
                 inkscape:connector-curvature="0"
                 style="fill:#000000;stroke-width:0" /><path
                 id="path3887"
                 d="m 503.2,411.93 -0.19,-0.3 -0.19,-0.29 -0.18,-0.28 -0.19,-0.26 -0.19,-0.25 -0.18,-0.23 -0.19,-0.22 -0.18,-0.21 -0.19,-0.2 -0.19,-0.18 -0.18,-0.17 -0.19,-0.16 -0.19,-0.15 -0.19,-0.14 -0.18,-0.13 -0.19,-0.12 -0.19,-0.11 -0.19,-0.1 -0.19,-0.09 -0.19,-0.09 -0.2,-0.07 -0.19,-0.07 -0.19,-0.07 -0.2,-0.05 -0.19,-0.05 -0.2,-0.04 -0.2,-0.04 -0.2,-0.03 -0.4,-0.05 -0.41,-0.03 c -0.61,-0.05 -1.04,-0.05 -1.04,-1 0,-0.3 0.25,-0.55 0.64,-0.55 1.34,0 2.89,0.16 4.28,0.16 1.64,0 3.39,-0.16 4.98,-0.16 0.3,0 0.96,0 0.96,0.95 0,0.55 -0.46,0.6 -0.8,0.6 -1.16,0.09 -2.34,0.5 -2.34,1.73 0,0.61 0.29,1.16 0.68,1.84 l 3.8,6.39 h 12.5 l -0.14,1.54 h -11.42 l 9.83,16.45 1.59,-16.45 0.14,-1.54 c 0.11,-1.04 0.8,-7.82 0.8,-8.32 0,-1.5 -2.6,-1.64 -3.58,-1.64 -0.7,0 -1.2,0 -1.2,-1 0,-0.55 0.59,-0.55 0.7,-0.55 2.03,0 4.19,0.16 6.22,0.16 1.25,0 4.39,-0.16 5.64,-0.16 0.29,0 0.89,0 0.89,1 0,0.55 -0.5,0.55 -1.14,0.55 -3.09,0 -3.09,0.34 -3.25,1.79 l -3.03,31.13 c -0.11,1 -0.11,1.2 -0.96,1.2 -0.79,0 -0.98,-0.34 -1.29,-0.84 z"
                 inkscape:connector-curvature="0"
                 style="fill:#000000;stroke-width:0" /><path
                 id="path3889"
                 d="m 548.54,445.28 0.01,0.04 0.01,0.05 0.01,0.04 0.01,0.05 0.01,0.04 0.01,0.04 0.01,0.04 0.01,0.04 0.02,0.07 0.02,0.07 0.02,0.06 0.02,0.06 0.02,0.06 0.02,0.05 0.02,0.05 0.02,0.04 0.02,0.04 0.03,0.04 0.02,0.04 0.03,0.03 0.03,0.03 0.03,0.02 0.03,0.03 0.03,0.02 0.04,0.02 0.04,0.02 0.04,0.01 0.04,0.02 0.04,0.01 0.05,0.01 0.06,0.01 0.05,0.01 0.06,0.01 0.06,0 0.07,0.01 0.07,0 c 0.17,0.04 1.39,0.04 2.09,0.04 2.13,0 3.03,0 3.89,-0.29 1.58,-0.48 1.64,-1.5 1.64,-2.75 0,-0.54 0,-1 -0.23,-2.81 l -0.08,-0.39 c 0,-0.34 0.25,-0.51 0.59,-0.51 0.53,0 0.6,0.31 0.68,0.86 l 0.93,6.65 c 0,0.5 -0.42,0.5 -1.04,0.5 h -21.44 c -0.86,0 -0.94,0 -1.17,-0.73 l -2.21,-6.17 c -0.03,-0.15 -0.17,-0.46 -0.17,-0.63 0,-0.14 0.06,-0.48 0.6,-0.48 0.45,0 0.51,0.17 0.73,0.82 2.02,5.58 3.17,5.93 8.47,5.93 h 1.45 c 1.05,0 1.08,-0.04 1.08,-0.35 0,-0.03 0,-0.2 -0.14,-0.73 l -4.59,-18.33 c -0.32,-1.28 -0.43,-1.64 -4.08,-1.64 -1.25,0 -1.57,0 -1.57,-0.77 0,-0.09 0.07,-0.48 0.6,-0.48 0.97,0 2.01,0.11 2.98,0.11 0.99,0 2.03,0.03 3,0.03 0.99,0 2.17,0 3.14,-0.03 0.94,-0.05 1.99,-0.11 2.93,-0.11 0.28,0 0.81,0 0.81,0.76 0,0.49 -0.36,0.49 -1.44,0.49 -0.66,0 -1.36,0.05 -2.02,0.08 -1.18,0.09 -1.25,0.23 -1.25,0.65 0,0.25 0,0.32 0.13,0.8 z"
                 inkscape:connector-curvature="0"
                 style="fill:#000000;stroke-width:0" /></g>          </g>
          <g
             id="g4599"
             transform="matrix(2.1711617,0,0,2.1711617,-310.35215,88.24717)">
            <g
               word-spacing="normal"
               letter-spacing="normal"
               font-size-adjust="none"
               font-stretch="normal"
               font-weight="normal"
               font-variant="normal"
               font-style="normal"
               stroke-miterlimit="10.433"
               xml:space="preserve"
               transform="matrix(0.33320341,0,0,-0.33320341,-58.310597,417.38283)"
               id="g4601"
               style="font-style:normal;font-variant:normal;font-weight:normal;font-stretch:normal;letter-spacing:normal;word-spacing:normal;text-anchor:start;fill:none;stroke:#000000;stroke-width:0.71966082;stroke-linecap:butt;stroke-linejoin:miter;stroke-miterlimit:10.43299961;stroke-opacity:1;stroke-dasharray:none;stroke-dashoffset:0"><path
                 id="path4603"
                 d="m 458.32,423.23 0.02,-0.96 0.07,-0.94 0.11,-0.93 0.16,-0.91 0.2,-0.89 0.24,-0.87 0.28,-0.85 0.32,-0.83 0.36,-0.81 0.39,-0.78 0.43,-0.76 0.46,-0.74 0.49,-0.7 0.52,-0.68 0.55,-0.66 0.59,-0.62 0.6,-0.59 0.64,-0.56 0.66,-0.53 0.68,-0.5 0.7,-0.46 0.73,-0.43 0.74,-0.39 0.77,-0.35 0.78,-0.32 0.79,-0.28 0.82,-0.23 0.82,-0.2 0.84,-0.15 0.84,-0.11 0.86,-0.07 0.86,-0.02 c 8.13,0 13,6.92 13,12.7 0,0.5 0,0.84 -0.64,0.84 -0.54,0 -0.54,-0.29 -0.59,-0.79 -0.41,-7.13 -5.73,-11.21 -11.17,-11.21 -3.03,0 -12.8,1.69 -12.8,16.53 0,14.91 9.72,16.6 12.75,16.6 5.44,0 9.88,-4.53 10.86,-11.82 0.11,-0.68 0.11,-0.84 0.8,-0.84 0.79,0 0.79,0.16 0.79,1.2 v 11.8 c 0,0.86 0,1.2 -0.54,1.2 -0.19,0 -0.39,0 -0.8,-0.59 l -2.48,-3.69 c -1.85,1.8 -4.39,4.28 -9.18,4.28 -9.31,0 -17.32,-7.92 -17.32,-18.09 z"
                 inkscape:connector-curvature="0"
                 style="fill:#000000;stroke-width:0" /><path
                 id="path4605"
                 d="m 513.19,423.14 0.45,0.12 0.44,0.12 0.44,0.14 0.43,0.15 0.42,0.16 0.42,0.17 0.4,0.18 0.4,0.19 0.39,0.19 0.37,0.21 0.37,0.22 0.35,0.22 0.34,0.23 0.33,0.24 0.32,0.25 0.3,0.26 0.29,0.27 0.27,0.27 0.26,0.28 0.24,0.29 0.23,0.29 0.21,0.31 0.19,0.3 0.18,0.32 0.15,0.32 0.14,0.33 0.12,0.33 0.09,0.35 0.08,0.34 0.06,0.35 0.03,0.36 0.01,0.36 c 0,4.78 -5.67,8.97 -13,8.97 h -15.64 v -1.55 h 1.19 c 3.84,0 3.93,-0.54 3.93,-2.34 v -26.25 c 0,-1.8 -0.09,-2.34 -3.93,-2.34 h -1.19 v -1.55 c 1.78,0.16 5.33,0.16 7.27,0.16 1.93,0 5.48,0 7.28,-0.16 v 1.55 h -1.21 c -3.82,0 -3.93,0.54 -3.93,2.34 v 12.59 1.11 12.89 c 0,1.16 0,1.75 1.09,1.91 0.5,0.09 1.95,0.09 2.95,0.09 4.47,0 10.06,-0.2 10.06,-7.42 0,-3.44 -1.2,-7.47 -8.57,-7.47 h -5.53 v -1.11 h 5.73 c 0.8,0 2.89,0 4.62,-1.68 1.91,-1.8 1.91,-3.35 1.91,-6.68 0,-3.25 0,-5.23 2.03,-7.12 2.05,-1.8 4.78,-2.09 6.28,-2.09 3.9,0 4.74,4.07 4.74,5.48 0,0.3 0,0.84 -0.64,0.84 -0.55,0 -0.55,-0.45 -0.61,-0.79 -0.3,-3.55 -2.03,-4.44 -3.28,-4.44 -2.44,0 -2.85,2.55 -3.55,7.17 l -0.64,3.99 c -0.89,3.18 -3.34,4.84 -6.08,5.78 z"
                 inkscape:connector-curvature="0"
                 style="fill:#000000;stroke-width:0" /><path
                 id="path4607"
                 d="m 534.57,410.04 5.28,5.13 c 7.76,6.87 10.76,9.56 10.76,14.54 0,5.69 -4.48,9.68 -10.56,9.68 -5.64,0 -9.33,-4.6 -9.33,-9.03 0,-2.79 2.5,-2.79 2.64,-2.79 0.86,0 2.6,0.6 2.6,2.64 0,1.3 -0.89,2.6 -2.64,2.6 -0.39,0 -0.5,0 -0.64,-0.05 1.14,3.24 3.82,5.08 6.72,5.08 4.53,0 6.68,-4.05 6.68,-8.13 0,-3.98 -2.5,-7.92 -5.23,-11.01 l -9.57,-10.66 c -0.56,-0.54 -0.56,-0.64 -0.56,-1.84 h 18.49 l 1.4,8.67 h -1.25 c -0.25,-1.5 -0.59,-3.69 -1.09,-4.44 -0.36,-0.39 -3.64,-0.39 -4.74,-0.39 z"
                 inkscape:connector-curvature="0"
                 style="fill:#000000;stroke-width:0" /></g>          </g>
        </g>
      </g>
      <g
         id="g10990"
         transform="translate(-266,4.0000001)">
        <g
           transform="translate(858.6013,0)"
           id="g10727">
          <g
             transform="matrix(0.64,0,0,0.64,-1583.298,246.79451)"
             id="g10548">
            <g
               transform="translate(55.795145,0)"
               id="g10550" />
            <g
               id="g10564">
              <path
                 sodipodi:nodetypes="cc"
                 inkscape:connector-curvature="0"
                 id="path10568"
                 d="m -72.312008,716.78894 0,55.13824"
                 style="fill:none;stroke:#000000;stroke-width:4.6875;stroke-linecap:butt;stroke-linejoin:miter;stroke-miterlimit:4;stroke-opacity:1;stroke-dasharray:none;marker-end:none" />
              <path
                 style="fill:none;stroke:#000000;stroke-width:4.6875;stroke-linecap:butt;stroke-linejoin:miter;stroke-miterlimit:4;stroke-opacity:1;stroke-dasharray:none;marker-end:url(#Arrow1Mend)"
                 d="m -72.252128,600.42942 0,53.3513"
                 id="path10572"
                 inkscape:connector-curvature="0"
                 sodipodi:nodetypes="cc" />
              <path
                 sodipodi:nodetypes="cc"
                 inkscape:connector-curvature="0"
                 id="path10574"
                 d="m -169.67805,770.82619 98.303445,0"
                 style="fill:none;stroke:#000000;stroke-width:4.6875;stroke-linecap:butt;stroke-linejoin:miter;stroke-miterlimit:4;stroke-opacity:1;stroke-dasharray:none;marker-start:url(#Arrow1Mstart);marker-end:none" />
              <path
                 style="fill:none;stroke:#000000;stroke-width:4.6875;stroke-linecap:butt;stroke-linejoin:miter;stroke-miterlimit:4;stroke-opacity:1;stroke-dasharray:none;marker-start:none;marker-end:none"
                 d="m -369.10426,770.82619 97.05523,0"
                 id="path10576"
                 inkscape:connector-curvature="0"
                 sodipodi:nodetypes="cc" />
              <path
                 sodipodi:nodetypes="cc"
                 inkscape:connector-curvature="0"
                 id="path10578"
                 d="m -178.00306,601.93991 106.370229,0"
                 style="fill:none;stroke:#000000;stroke-width:4.6875;stroke-linecap:butt;stroke-linejoin:miter;stroke-miterlimit:4;stroke-opacity:1;stroke-dasharray:none;marker-end:none" />
              <path
                 style="fill:none;stroke:#000000;stroke-width:4.6875;stroke-linecap:butt;stroke-linejoin:miter;stroke-miterlimit:4;stroke-opacity:1;stroke-dasharray:none;marker-start:url(#Arrow1Mstart-4);marker-end:none"
                 d="m -368.49086,725.92079 0,46.38139"
                 id="path10580"
                 inkscape:connector-curvature="0"
                 sodipodi:nodetypes="cc" />
              <path
                 style="fill:none;stroke:#000000;stroke-width:4.6875;stroke-linecap:butt;stroke-linejoin:miter;stroke-miterlimit:4;stroke-opacity:1;stroke-dasharray:none;marker-end:url(#Arrow1Mend-0)"
                 d="m -369.44363,601.93991 87.25123,0"
                 id="path10582"
                 inkscape:connector-curvature="0"
                 sodipodi:nodetypes="cc" />
              <path
                 style="fill:none;stroke:#000000;stroke-width:4.6875;stroke-linecap:butt;stroke-linejoin:miter;stroke-miterlimit:4;stroke-opacity:1;stroke-dasharray:none;marker-end:none"
                 d="m -368.73492,600.436 0,59.14215"
                 id="path10586"
                 inkscape:connector-curvature="0"
                 sodipodi:nodetypes="cc" />
            </g>
          </g>
          <g
             id="g10652">
            <g
               id="g5520">
              <g
                 id="g3235"
                 transform="translate(-986.82011,352.68254)">
                <g
                   word-spacing="normal"
                   letter-spacing="normal"
                   font-size-adjust="none"
                   font-stretch="normal"
                   font-weight="normal"
                   font-variant="normal"
                   font-style="normal"
                   stroke-miterlimit="10.433"
                   xml:space="preserve"
                   transform="matrix(1.0629921,0,0,-1.0629921,-186.02362,789.27165)"
                   id="g3237"
                   style="font-style:normal;font-variant:normal;font-weight:normal;font-stretch:normal;letter-spacing:normal;word-spacing:normal;text-anchor:start;fill:none;stroke:#000000;stroke-linecap:butt;stroke-linejoin:miter;stroke-miterlimit:10.43299961;stroke-opacity:1;stroke-dasharray:none;stroke-dashoffset:0"><g
                     id="g10623"><rect
                       transform="matrix(0.60207409,0,0,-0.60207409,-386.13104,842.1132)"
                       style="fill:#c8c8c8;fill-opacity:1;stroke:#000000;stroke-width:4.6875;stroke-linecap:butt;stroke-linejoin:miter;stroke-miterlimit:4;stroke-opacity:1;stroke-dasharray:none;stroke-dashoffset:0"
                       id="rect10566"
                       width="91.789291"
                       height="239.68945"
                       x="-271.19824"
                       y="568.36261"
                       rx="0"
                       ry="0" /><path
                       style="fill:#000000;stroke-width:0"
                       inkscape:connector-curvature="0"
                       d="m -510.4611,439.0318 0,0.0128 0,0.0128 0,0.006 -0.006,0.0128 0,0.0128 0,0.0128 -0.006,0.0128 0,0.0128 -0.006,0.0128 -0.006,0.0128 -0.006,0.0128 0,0.0128 -0.0128,0.0128 -0.006,0.0128 -0.006,0.0128 -0.006,0.0128 -0.0128,0.0128 -0.0128,0.0128 -0.0128,0.0128 -0.0128,0.0128 -0.0128,0.006 -0.0128,0.0128 -0.0192,0.006 -0.0128,0.0128 -0.0192,0.006 -0.006,0.006 -0.0128,0 -0.006,0.006 -0.0128,0 -0.0128,0.006 -0.006,0 -0.0128,0 -0.0128,0.006 -0.0128,0 -0.0128,0 -0.0128,0 -0.0128,0 -0.0128,0 -0.0128,0 c -0.0896,0 -0.128,-0.0256 -0.48,-0.3776 l -2.2272,-2.4576 c -0.2816,0.448 -1.7536,2.8352 -5.2928,2.8352 -7.1104,0 -14.2912,-7.0464 -14.2912,-14.4384 0,-5.0688 3.5456,-8.736 8.7104,-8.736 1.4016,0 2.8416,0.288 3.9808,0.7552 1.6,0.64 2.2016,1.312 2.784,1.952 0.288,-0.8 1.1072,-1.9776 1.4272,-1.9776 0.16,0 0.2304,0.096 0.2304,0.128 0.0576,0.0576 0.3776,1.2672 0.5376,1.9392 l 0.6016,2.4576 c 0.128,0.544 0.288,1.0816 0.4224,1.632 0.3456,1.4336 0.3776,1.4912 2.1952,1.5296 0.16,0 0.512,0.032 0.512,0.6336 0,0.2304 -0.16,0.3456 -0.4096,0.3456 -0.7424,0 -2.6176,-0.0896 -3.3472,-0.0896 -0.992,0 -3.4816,0.0896 -4.4736,0.0896 -0.2816,0 -0.6656,0 -0.6656,-0.6272 0,-0.352 0.256,-0.352 0.96,-0.352 0.0256,0 0.96,0 1.6896,-0.0704 0.8256,-0.0896 0.9856,-0.1856 0.9856,-0.6016 0,-0.288 -0.3456,-1.728 -0.6656,-2.8992 -0.8896,-3.5072 -5.0432,-3.8592 -6.1632,-3.8592 -3.0592,0 -6.4,1.8112 -6.4,6.6944 0,0.9856 0.3136,6.2464 3.6608,10.4 1.7216,2.1696 4.8192,4.1088 7.968,4.1088 3.264,0 5.1392,-2.4512 5.1392,-6.1504 0,-1.28 -0.096,-1.312 -0.096,-1.632 0,-0.32 0.3456,-0.32 0.48,-0.32 0.4096,0 0.4096,0.0704 0.5696,0.64 z"
                       id="path3239" /></g></g>              </g>
              <g
                 id="g10628">
                <rect
                   ry="17.761597"
                   rx="17.761597"
                   y="-716.85168"
                   x="-482.2327"
                   height="56.291225"
                   width="119.23011"
                   id="rect10552"
                   style="fill:#c8c8c8;fill-opacity:1;stroke:#000000;stroke-width:4.61615181;stroke-linecap:butt;stroke-linejoin:miter;stroke-miterlimit:4;stroke-opacity:1;stroke-dasharray:none;stroke-dashoffset:0"
                   transform="matrix(0.64,0,0,-0.64,-1547.5891,246.79451)" />
                <g
                   transform="matrix(1.9444134,0,0,1.9444134,-2020.1236,143.89243)"
                   id="g5005">
                  <g
                     style="font-style:normal;font-variant:normal;font-weight:normal;font-stretch:normal;letter-spacing:normal;word-spacing:normal;text-anchor:start;fill:none;stroke:#000000;stroke-width:0.51429391;stroke-linecap:butt;stroke-linejoin:miter;stroke-miterlimit:10.43299961;stroke-opacity:1;stroke-dasharray:none;stroke-dashoffset:0"
                     word-spacing="normal"
                     letter-spacing="normal"
                     font-size-adjust="none"
                     font-stretch="normal"
                     font-weight="normal"
                     font-variant="normal"
                     font-style="normal"
                     stroke-miterlimit="10.433"
                     xml:space="preserve"
                     transform="matrix(0.33320341,0,0,-0.33320341,-58.310597,417.38283)"
                     id="g5007"><path
                       style="fill:#000000;stroke-width:0"
                       inkscape:connector-curvature="0"
                       id="path5009"
                       d="m 459.91,409.14 -0.02,-0.07 -0.01,-0.08 -0.02,-0.07 -0.01,-0.08 -0.04,-0.16 -0.04,-0.16 -0.03,-0.16 -0.04,-0.16 -0.04,-0.16 -0.04,-0.16 -0.01,-0.08 -0.02,-0.07 -0.02,-0.07 -0.01,-0.07 -0.02,-0.07 -0.01,-0.07 -0.01,-0.06 -0.01,-0.06 -0.01,-0.06 -0.01,-0.05 -0.01,-0.05 -0.01,-0.04 -0.01,-0.04 0,-0.04 0,-0.03 0,-0.02 c 0,-0.89 0.7,-1.35 1.43,-1.35 0.61,0 1.5,0.39 1.85,1.39 0.06,0.11 0.65,2.44 0.95,3.69 l 1.1,4.48 c 0.29,1.1 0.59,2.19 0.84,3.35 0.2,0.84 0.61,2.28 0.66,2.48 0.75,1.55 3.39,6.08 8.1,6.08 2.25,0 2.71,-1.84 2.71,-3.48 0,-1.25 -0.36,-2.64 -0.75,-4.14 l -1.39,-5.79 -1,-3.78 c -0.21,-1 -0.66,-2.68 -0.66,-2.93 0,-0.89 0.7,-1.35 1.45,-1.35 1.55,0 1.85,1.25 2.24,2.85 0.7,2.78 2.55,10.06 3,12 0.14,0.65 2.78,6.62 8.22,6.62 2.14,0 2.68,-1.69 2.68,-3.48 0,-2.85 -2.09,-8.52 -3.09,-11.16 -0.45,-1.2 -0.64,-1.75 -0.64,-2.75 0,-2.33 1.73,-4.08 4.08,-4.08 4.69,0 6.53,7.27 6.53,7.67 0,0.5 -0.45,0.5 -0.59,0.5 -0.5,0 -0.5,-0.15 -0.75,-0.9 -0.75,-2.64 -2.35,-6.17 -5.08,-6.17 -0.86,0 -1.21,0.5 -1.21,1.64 0,1.25 0.46,2.45 0.9,3.54 0.95,2.58 3.04,8.11 3.04,10.96 0,3.23 -2,5.32 -5.73,5.32 -3.74,0 -6.27,-2.18 -8.11,-4.82 -0.06,0.65 -0.2,2.34 -1.61,3.53 -1.24,1.04 -2.83,1.29 -4.08,1.29 -4.48,0 -6.92,-3.18 -7.76,-4.32 -0.25,2.84 -2.35,4.32 -4.6,4.32 -2.28,0 -3.23,-1.93 -3.69,-2.82 -0.89,-1.75 -1.54,-4.69 -1.54,-4.85 0,-0.5 0.5,-0.5 0.61,-0.5 0.5,0 0.54,0.07 0.84,1.16 0.84,3.53 1.84,5.92 3.64,5.92 0.8,0 1.55,-0.39 1.55,-2.28 0,-1.05 -0.16,-1.61 -0.8,-4.19 z" /><path
                       style="fill:#000000;stroke-width:0"
                       inkscape:connector-curvature="0"
                       id="path4976"
                       d="m 516.79,405.11 h -1.19 c -0.09,-0.77 -0.45,-2.83 -0.9,-3.18 -0.27,-0.2 -2.95,-0.2 -3.44,-0.2 h -6.42 c 3.66,3.23 4.87,4.2 6.97,5.84 2.58,2.07 4.98,4.22 4.98,7.54 0,4.21 -3.69,6.79 -8.15,6.79 -4.32,0 -7.25,-3.03 -7.25,-6.23 0,-1.78 1.5,-1.96 1.86,-1.96 0.82,0 1.84,0.6 1.84,1.85 0,0.62 -0.25,1.84 -2.06,1.84 1.08,2.47 3.45,3.24 5.09,3.24 3.49,0 5.3,-2.71 5.3,-5.53 0,-3.04 -2.16,-5.44 -3.28,-6.69 l -8.39,-8.3 c -0.36,-0.31 -0.36,-0.39 -0.36,-1.36 h 14.36 z" /></g>                </g>
              </g>
              <g
                 id="g10615">
                <rect
                   transform="matrix(0.64,0,0,-0.64,-1583.298,246.79451)"
                   style="fill:#c8c8c8;fill-opacity:1;stroke:#000000;stroke-width:4.61615181;stroke-linecap:butt;stroke-linejoin:miter;stroke-miterlimit:4;stroke-opacity:1;stroke-dasharray:none;stroke-dashoffset:0"
                   id="rect10570"
                   width="119.23011"
                   height="56.291225"
                   x="-131.64032"
                   y="-716.85168"
                   rx="14.636597"
                   ry="14.636597" />
                <g
                   transform="matrix(3.0381459,0,0,3.0381459,-755.09874,-176.24784)"
                   id="g5328">
                  <g
                     style="font-style:normal;font-variant:normal;font-weight:normal;font-stretch:normal;letter-spacing:normal;word-spacing:normal;text-anchor:start;fill:none;stroke:#000000;stroke-width:0.32914811;stroke-linecap:butt;stroke-linejoin:miter;stroke-miterlimit:10.43299961;stroke-opacity:1;stroke-dasharray:none;stroke-dashoffset:0"
                     id="g5330"
                     transform="matrix(0.33320341,0,0,-0.33320341,-58.310597,417.38283)"
                     xml:space="preserve"
                     stroke-miterlimit="10.433"
                     font-style="normal"
                     font-variant="normal"
                     font-weight="normal"
                     font-stretch="normal"
                     font-size-adjust="none"
                     letter-spacing="normal"
                     word-spacing="normal"><path
                       style="fill:#000000;stroke-width:0"
                       inkscape:connector-curvature="0"
                       d="m -705.389,397.74385 -0.0128,-0.0448 -0.006,-0.0512 -0.0128,-0.0448 -0.006,-0.0512 -0.0256,-0.1024 -0.0256,-0.1024 -0.0192,-0.1024 -0.0256,-0.1024 -0.0256,-0.1024 -0.0256,-0.1024 -0.006,-0.0512 -0.0128,-0.0448 -0.0128,-0.0448 -0.006,-0.0448 -0.0128,-0.0448 -0.006,-0.0448 -0.006,-0.0384 -0.006,-0.0384 -0.006,-0.0384 -0.006,-0.032 -0.006,-0.032 -0.006,-0.0256 -0.006,-0.0256 0,-0.0256 0,-0.0192 0,-0.0128 c 0,-0.5696 0.448,-0.864 0.9152,-0.864 0.3904,0 0.96,0.2496 1.184,0.8896 0.0384,0.0704 0.416,1.5616 0.608,2.3616 l 0.704,2.8672 c 0.1856,0.704 0.3776,1.4016 0.5376,2.144 0.128,0.5376 0.3904,1.4592 0.4224,1.5872 0.48,0.992 2.1696,3.8912 5.184,3.8912 1.44,0 1.7344,-1.1776 1.7344,-2.2272 0,-0.8 -0.2304,-1.6896 -0.48,-2.6496 l -0.8896,-3.7056 -0.64,-2.4192 c -0.1344,-0.64 -0.4224,-1.7152 -0.4224,-1.8752 0,-0.5696 0.448,-0.864 0.928,-0.864 0.992,0 1.184,0.8 1.4336,1.824 0.448,1.7792 1.632,6.4384 1.92,7.68 0.0896,0.416 1.7792,4.2368 5.2608,4.2368 1.3696,0 1.7152,-1.0816 1.7152,-2.2272 0,-1.824 -1.3376,-5.4528 -1.9776,-7.1424 -0.288,-0.768 -0.4096,-1.12 -0.4096,-1.76 0,-1.4912 1.1072,-2.6112 2.6112,-2.6112 3.0016,0 4.1792,4.6528 4.1792,4.9088 0,0.32 -0.288,0.32 -0.3776,0.32 -0.32,0 -0.32,-0.096 -0.48,-0.576 -0.48,-1.6896 -1.504,-3.9488 -3.2512,-3.9488 -0.5504,0 -0.7744,0.32 -0.7744,1.0496 0,0.8 0.2944,1.568 0.576,2.2656 0.608,1.6512 1.9456,5.1904 1.9456,7.0144 0,2.0672 -1.28,3.4048 -3.6672,3.4048 -2.3936,0 -4.0128,-1.3952 -5.1904,-3.0848 -0.0384,0.416 -0.128,1.4976 -1.0304,2.2592 -0.7936,0.6656 -1.8112,0.8256 -2.6112,0.8256 -2.8672,0 -4.4288,-2.0352 -4.9664,-2.7648 -0.16,1.8176 -1.504,2.7648 -2.944,2.7648 -1.4592,0 -2.0672,-1.2352 -2.3616,-1.8048 -0.5696,-1.12 -0.9856,-3.0016 -0.9856,-3.104 0,-0.32 0.32,-0.32 0.3904,-0.32 0.32,0 0.3456,0.0448 0.5376,0.7424 0.5376,2.2592 1.1776,3.7888 2.3296,3.7888 0.512,0 0.992,-0.2496 0.992,-1.4592 0,-0.672 -0.1024,-1.0304 -0.512,-2.6816 z"
                       id="path5332" /><path
                       style="fill:#000000;stroke-width:0"
                       inkscape:connector-curvature="0"
                       d="m -673.11756,402.90705 0,0.0256 0,0.0256 0,0.032 0,0.0256 0,0.0192 0,0.0256 0,0.0256 0,0.0192 -0.006,0.0256 0,0.0192 0,0.0192 0,0.0192 0,0.0192 -0.006,0.0192 0,0.0192 0,0.0128 -0.006,0.0192 0,0.0128 -0.006,0.0192 0,0.0128 -0.0128,0.0256 -0.006,0.0256 -0.0128,0.0192 -0.0128,0.0192 -0.0128,0.0192 -0.0128,0.0192 -0.0192,0.0128 -0.0192,0.0128 -0.0192,0.0128 -0.0256,0.006 -0.0256,0.006 -0.032,0.0128 -0.0128,0 -0.0128,0 -0.0192,0.006 -0.0192,0 -0.0128,0.006 -0.0192,0 -0.0192,0 -0.0192,0 -0.0256,0 -0.0192,0.006 -0.0192,0 -0.0256,0 -0.0192,0 -0.0256,0 -0.0256,0 -0.0256,0 -0.0256,0 -0.032,0 -0.0256,0 -0.032,0 c -1.4272,-1.408 -3.4496,-1.4272 -4.3648,-1.4272 v -0.8 c 0.5376,0 2.0096,0 3.2256,0.6208 v -11.3728 c 0,-0.7424 0,-1.0304 -2.2272,-1.0304 h -0.8384 v -0.8 c 0.3968,0.0192 3.136,0.0896 3.968,0.0896 0.6912,0 3.5008,-0.0704 3.9872,-0.0896 v 0.8 h -0.8512 c -2.2272,0 -2.2272,0.288 -2.2272,1.0304 z"
                       id="path5334" /></g>                </g>
              </g>
            </g>
          </g>
        </g>
      </g>
    </g>
    <g
       id="g13969"
       transform="translate(851.21377,0)">
      <g
         transform="translate(-342.32099,560.93217)"
         id="g14015">
        <g
           transform="translate(27.857143,6.42857)"
           id="g14017">
          <g
             id="g14019"
             transform="translate(6.4285714,2.8571429)">
            <g
               word-spacing="normal"
               letter-spacing="normal"
               font-size-adjust="none"
               font-stretch="normal"
               font-weight="normal"
               font-variant="normal"
               font-style="normal"
               stroke-miterlimit="10.433"
               xml:space="preserve"
               transform="matrix(1.0629921,0,0,-1.0629921,-186.02362,789.27165)"
               id="g14021"
               style="font-style:normal;font-variant:normal;font-weight:normal;font-stretch:normal;letter-spacing:normal;word-spacing:normal;text-anchor:start;fill:none;stroke:#000000;stroke-linecap:butt;stroke-linejoin:miter;stroke-miterlimit:10.43299961;stroke-opacity:1;stroke-dasharray:none;stroke-dashoffset:0" />          </g>
        </g>
        <g
           id="g14023" />
      </g>
    </g>
  </g>
</svg>
