<?xml version="1.0" encoding="UTF-8" standalone="no"?>
<svg
   xmlns:dc="http://purl.org/dc/elements/1.1/"
   xmlns:cc="http://creativecommons.org/ns#"
   xmlns:rdf="http://www.w3.org/1999/02/22-rdf-syntax-ns#"
   xmlns:svg="http://www.w3.org/2000/svg"
   xmlns="http://www.w3.org/2000/svg"
   xmlns:xlink="http://www.w3.org/1999/xlink"
   xmlns:sodipodi="http://sodipodi.sourceforge.net/DTD/sodipodi-0.dtd"
   xmlns:inkscape="http://www.inkscape.org/namespaces/inkscape"
   width="401.44495"
   height="401.44495"
   viewBox="68 25 468.02606 425.9233"
   id="svg2"
   version="1.1"
   inkscape:version="0.48.5 r10040"
   sodipodi:docname="pnorm.svg"
   inkscape:export-filename="/Users/aziz/Documents/www/optimization/assets/img/examples/pnorm.png"
   inkscape:export-xdpi="399.13031"
   inkscape:export-ydpi="399.13031">
  <metadata
     id="metadata202">
    <rdf:RDF>
      <cc:Work
         rdf:about="">
        <dc:format>image/svg+xml</dc:format>
        <dc:type
           rdf:resource="http://purl.org/dc/dcmitype/StillImage" />
        <dc:title></dc:title>
      </cc:Work>
    </rdf:RDF>
  </metadata>
  <sodipodi:namedview
     pagecolor="#ffffff"
     bordercolor="#666666"
     borderopacity="1"
     objecttolerance="10"
     gridtolerance="10"
     guidetolerance="10"
     inkscape:pageopacity="0"
     inkscape:pageshadow="2"
     inkscape:window-width="689"
     inkscape:window-height="669"
     id="namedview200"
     showgrid="false"
     inkscape:zoom="0.57560976"
     inkscape:cx="471.8513"
     inkscape:cy="-46.457717"
     inkscape:window-x="0"
     inkscape:window-y="0"
     inkscape:window-maximized="0"
     inkscape:current-layer="svg2"
     fit-margin-top="0"
     fit-margin-left="0"
     fit-margin-right="0"
     fit-margin-bottom="0" />
  <desc
     id="desc4">Produced by GNUPLOT 4.4 patchlevel 0 </desc>
  <defs
     id="defs6">
    <circle
       id="gpDot"
       r="0.5"
       cx="0"
       cy="0"
       sodipodi:cx="0"
       sodipodi:cy="0"
       sodipodi:rx="0.5"
       sodipodi:ry="0.5"
       style="stroke-width:0.5" />
    <path
       id="gpPt0"
       d="M -1,0 H 1 M 0,-1 v 2"
       inkscape:connector-curvature="0"
       style="stroke:currentColor;stroke-width:0.222" />
    <path
       id="gpPt1"
       d="M -1,-1 1,1 M 1,-1 -1,1"
       inkscape:connector-curvature="0"
       style="stroke:currentColor;stroke-width:0.222" />
    <path
       id="gpPt2"
       d="M -1,0 1,0 M 0,-1 0,1 m -1,-2 2,2 m -2,0 2,-2"
       inkscape:connector-curvature="0"
       style="stroke:currentColor;stroke-width:0.222" />
    <rect
       id="gpPt3"
       x="-1"
       y="-1"
       width="2"
       height="2"
       style="stroke:currentColor;stroke-width:0.222" />
    <rect
       id="gpPt4"
       x="-1"
       y="-1"
       width="2"
       height="2"
       style="fill:currentColor;stroke:currentColor;stroke-width:0.222" />
    <circle
       id="gpPt5"
       cx="0"
       cy="0"
       r="1"
       sodipodi:cx="0"
       sodipodi:cy="0"
       sodipodi:rx="1"
       sodipodi:ry="1"
       style="stroke:currentColor;stroke-width:0.222" />
    <use
       xlink:href="#gpPt5"
       id="gpPt6"
       style="fill:currentColor;stroke:none"
       x="0"
       y="0"
       width="478"
       height="435" />
    <path
       id="gpPt7"
       d="m 0,-1.33 -1.33,2 2.66,0 z"
       inkscape:connector-curvature="0"
       style="stroke:currentColor;stroke-width:0.222" />
    <use
       xlink:href="#gpPt7"
       id="gpPt8"
       style="fill:currentColor;stroke:none"
       x="0"
       y="0"
       width="478"
       height="435" />
    <use
       xlink:href="#gpPt7"
       id="gpPt9"
       transform="scale(-1,-1)"
       style="stroke:currentColor"
       x="0"
       y="0"
       width="478"
       height="435" />
    <use
       xlink:href="#gpPt9"
       id="gpPt10"
       style="fill:currentColor;stroke:none"
       x="0"
       y="0"
       width="478"
       height="435" />
    <use
       xlink:href="#gpPt3"
       id="gpPt11"
       transform="matrix(0.70710678,0.70710678,-0.70710678,0.70710678,0,0)"
       style="stroke:currentColor"
       x="0"
       y="0"
       width="478"
       height="435" />
    <use
       xlink:href="#gpPt11"
       id="gpPt12"
       style="fill:currentColor;stroke:none"
       x="0"
       y="0"
       width="478"
       height="435" />
  </defs>
  <g
     id="g3183"
     style="stroke:#c8c8c8;stroke-opacity:1"
     transform="translate(-19.164948,0.58292717)">
    <path
       inkscape:connector-curvature="0"
       id="path3179"
       d="m 320.46187,3.4999997 0,466.8601903"
       style="fill:none;stroke:#000000;stroke-width:1.16585373999999997px;stroke-linecap:butt;stroke-linejoin:miter;stroke-opacity:1" />
    <path
       style="fill:none;stroke:#000000;stroke-width:1.16585373999999997px;stroke-linecap:butt;stroke-linejoin:miter;stroke-opacity:1"
       d="m 554.60807,230.30621 -466.860195,0"
       id="path3181"
       inkscape:connector-curvature="0" />
  </g>
  <g
     style="color:#ffffff;fill:none;stroke:currentColor;stroke-width:1;stroke-linecap:butt;stroke-linejoin:miter"
     id="g22"
     transform="translate(-19.164948,0.58292717)" />
  <a
     xlink:title="Plot #1"
     id="a112"
     style="stroke:#000000;stroke-opacity:1"
     transform="translate(-19.164948,0.58292717)">
    <g
       style="color:#ff0000;fill:none;stroke:#000000;stroke-width:2;stroke-linecap:butt;stroke-linejoin:miter;stroke-opacity:1"
       id="g114">
      <path
         d="m 149.7,230.3 3.5,-3.4 3.4,-3.5 3.5,-3.4 3.4,-3.5 3.5,-3.4 3.4,-3.5 3.5,-3.4 3.5,-3.5 3.4,-3.4 3.5,-3.5 3.4,-3.4 3.5,-3.5 3.4,-3.4 3.5,-3.5 3.4,-3.4 3.5,-3.5 3.4,-3.4 3.5,-3.5 3.4,-3.5 3.5,-3.4 3.4,-3.5 3.5,-3.4 3.4,-3.5 3.5,-3.4 3.5,-3.5 3.4,-3.4 3.5,-3.5 3.4,-3.4 3.5,-3.5 3.4,-3.4 3.5,-3.5 3.4,-3.4 3.5,-3.5 3.4,-3.4 3.5,-3.5 3.4,-3.5 3.5,-3.4 3.4,-3.5 3.5,-3.4 3.4,-3.5 3.5,-3.4 3.5,-3.5 3.4,-3.4 3.5,-3.5 3.4,-3.4 3.5,-3.5 3.4,-3.4 3.5,-3.5 3.4,-3.4 1.1,-1.7 2.4,1.7 3.4,3.4 3.5,3.5 3.4,3.4 3.5,3.5 3.4,3.4 3.5,3.5 3.4,3.4 3.5,3.5 3.5,3.4 3.4,3.5 3.5,3.4 3.4,3.5 3.5,3.4 3.4,3.5 3.5,3.5 3.4,3.4 3.5,3.5 3.4,3.4 3.5,3.5 3.4,3.4 3.5,3.5 3.4,3.4 3.5,3.5 3.4,3.4 3.5,3.5 3.5,3.4 3.4,3.5 3.5,3.4 3.4,3.5 3.5,3.4 3.4,3.5 3.5,3.5 3.4,3.4 3.5,3.5 3.4,3.4 3.5,3.5 3.4,3.4 3.5,3.5 3.4,3.4 3.5,3.5 3.4,3.4 3.5,3.5 3.5,3.4 3.4,3.5 3.5,3.4 3.4,3.5 3.5,3.4 3.4,3.5 3.5,3.4"
         id="path116"
         style="stroke:#000000;stroke-opacity:1"
         inkscape:connector-curvature="0" />
    </g>
  </a>
  <a
     xlink:title="Plot #2"
     id="a118"
     style="stroke:#000000;stroke-opacity:1"
     transform="translate(-19.164948,0.58292717)">
    <g
       style="color:#008000;fill:none;stroke:#000000;stroke-width:2;stroke-linecap:butt;stroke-linejoin:miter;stroke-opacity:1"
       id="g120">
      <path
         d="m 149.7,230.4 3.5,3.4 3.4,3.5 3.5,3.4 3.4,3.5 3.5,3.4 3.4,3.5 3.5,3.4 3.5,3.5 3.4,3.4 3.5,3.5 3.4,3.4 3.5,3.5 3.4,3.4 3.5,3.5 3.4,3.4 3.5,3.5 3.4,3.4 3.5,3.5 3.4,3.5 3.5,3.4 3.4,3.5 3.5,3.4 3.4,3.5 3.5,3.4 3.5,3.5 3.4,3.4 3.5,3.5 3.4,3.4 3.5,3.5 3.4,3.4 3.5,3.5 3.4,3.4 3.5,3.5 3.4,3.4 3.5,3.5 3.4,3.5 3.5,3.4 3.4,3.5 3.5,3.4 3.4,3.5 3.5,3.4 3.5,3.5 3.4,3.4 3.5,3.5 3.4,3.4 3.5,3.5 3.4,3.4 3.5,3.5 3.4,3.4 1.1,1.5 2.4,-1.5 3.4,-3.4 3.5,-3.5 3.4,-3.4 3.5,-3.5 3.4,-3.4 3.5,-3.5 3.4,-3.4 3.5,-3.5 3.5,-3.4 3.4,-3.5 3.5,-3.4 3.4,-3.5 3.5,-3.4 3.4,-3.5 3.5,-3.5 3.4,-3.4 3.5,-3.5 3.4,-3.4 3.5,-3.5 3.4,-3.4 3.5,-3.5 3.4,-3.4 3.5,-3.5 3.4,-3.4 3.5,-3.5 3.5,-3.4 3.4,-3.5 3.5,-3.4 3.4,-3.5 3.5,-3.4 3.4,-3.5 3.5,-3.5 3.4,-3.4 3.5,-3.5 3.4,-3.4 3.5,-3.5 3.4,-3.4 3.5,-3.5 3.4,-3.4 3.5,-3.5 3.4,-3.4 3.5,-3.5 3.5,-3.4 3.4,-3.5 3.5,-3.4 3.4,-3.5 3.5,-3.4 3.4,-3.5 3.5,-3.4"
         id="path122"
         style="stroke:#000000;stroke-opacity:1"
         inkscape:connector-curvature="0" />
    </g>
  </a>
  <a
     xlink:title="Plot #3"
     id="a124"
     style="stroke:#000000;stroke-opacity:1"
     transform="translate(-19.164948,0.58292717)">
    <g
       style="color:#0000ff;fill:none;stroke:#000000;stroke-width:2;stroke-linecap:butt;stroke-linejoin:miter;stroke-opacity:1"
       id="g126">
      <path
         d="m 149.7,230.3 3.5,-16.5 3.4,-9.6 3.5,-8.1 3.4,-7 3.5,-6.5 3.4,-6 3.5,-5.6 3.5,-5.2 3.4,-5.1 3.5,-4.7 3.4,-4.6 3.5,-4.4 3.4,-4.2 3.5,-4.1 3.4,-3.9 3.5,-3.8 3.4,-3.7 3.5,-3.5 3.4,-3.5 3.5,-3.3 3.4,-3.2 3.5,-3.1 3.4,-3.1 3.5,-2.9 3.5,-2.8 3.4,-2.8 3.5,-2.7 3.4,-2.6 3.5,-2.5 3.4,-2.4 3.5,-2.3 3.4,-2.3 3.5,-2.2 3.4,-2.1 3.5,-2 3.4,-1.9 3.5,-1.9 3.4,-1.8 3.5,-1.6 3.4,-1.7 3.5,-1.5 3.5,-1.4 3.4,-1.3 3.5,-1.2 3.4,-1.1 3.5,-1 3.4,-0.9 3.5,-0.7 3.4,-0.5 3.5,0 3.4,0.5 3.5,0.7 3.4,0.9 3.5,1 3.4,1.1 3.5,1.2 3.4,1.3 3.5,1.4 3.5,1.5 3.4,1.7 3.5,1.6 3.4,1.8 3.5,1.9 3.4,1.9 3.5,2 3.4,2.1 3.5,2.2 3.4,2.3 3.5,2.3 3.4,2.4 3.5,2.5 3.4,2.6 3.5,2.7 3.4,2.8 3.5,2.8 3.5,2.9 3.4,3.1 3.5,3.1 3.4,3.2 3.5,3.3 3.4,3.5 3.5,3.5 3.4,3.7 3.5,3.8 3.4,3.9 3.5,4.1 3.4,4.2 3.5,4.4 3.4,4.6 3.5,4.7 3.4,5.1 3.5,5.2 3.5,5.6 3.4,6 3.5,6.5 3.4,7 3.5,8.1 3.4,9.6 3.5,16.5"
         id="path128"
         style="stroke:#000000;stroke-opacity:1"
         inkscape:connector-curvature="0" />
    </g>
  </a>
  <a
     xlink:title="Plot #4"
     id="a130"
     style="stroke:#000000;stroke-opacity:1"
     transform="translate(-19.164948,0.58292717)">
    <g
       style="color:#00ffff;fill:none;stroke:#000000;stroke-width:2;stroke-linecap:butt;stroke-linejoin:miter;stroke-opacity:1"
       id="g132">
      <path
         d="m 149.7,230.4 3.5,16.5 3.4,9.6 3.5,8.1 3.4,7 3.5,6.5 3.4,6 3.5,5.6 3.5,5.2 3.4,5.1 3.5,4.7 3.4,4.6 3.5,4.4 3.4,4.2 3.5,4.1 3.4,3.9 3.5,3.8 3.4,3.7 3.5,3.5 3.4,3.5 3.5,3.3 3.4,3.2 3.5,3.1 3.4,3.1 3.5,2.9 3.5,2.8 3.4,2.8 3.5,2.7 3.4,2.6 3.5,2.5 3.4,2.4 3.5,2.3 3.4,2.3 3.5,2.2 3.4,2.1 3.5,2 3.4,1.9 3.5,1.9 3.4,1.8 3.5,1.6 3.4,1.7 3.5,1.5 3.5,1.4 3.4,1.3 3.5,1.2 3.4,1.1 3.5,1 3.4,0.9 3.5,0.7 3.4,0.5 3.5,0 3.4,-0.5 3.5,-0.7 3.4,-0.9 3.5,-1 3.4,-1.1 3.5,-1.2 3.4,-1.3 3.5,-1.4 3.5,-1.5 3.4,-1.7 3.5,-1.6 3.4,-1.8 3.5,-1.9 3.4,-1.9 3.5,-2 3.4,-2.1 3.5,-2.2 3.4,-2.3 3.5,-2.3 3.4,-2.4 3.5,-2.5 3.4,-2.6 3.5,-2.7 3.4,-2.8 3.5,-2.8 3.5,-2.9 3.4,-3.1 3.5,-3.1 3.4,-3.2 3.5,-3.3 3.4,-3.5 3.5,-3.5 3.4,-3.7 3.5,-3.8 3.4,-3.9 3.5,-4.1 3.4,-4.2 3.5,-4.4 3.4,-4.6 3.5,-4.7 3.4,-5.1 3.5,-5.2 3.5,-5.6 3.4,-6 3.5,-6.5 3.4,-7 3.5,-8.1 3.4,-9.6 3.5,-16.5"
         id="path134"
         style="stroke:#000000;stroke-opacity:1"
         inkscape:connector-curvature="0" />
    </g>
  </a>
  <a
     xlink:title="Plot #5"
     id="a136"
     style="stroke:#000000;stroke-opacity:1"
     transform="translate(-19.164948,0.58292717)">
    <g
       style="color:#157545;fill:none;stroke:#000000;stroke-width:2;stroke-linecap:butt;stroke-linejoin:miter;stroke-opacity:1"
       id="g138">
      <path
         d="m 149.7,230.3 3.5,-34.1 3.4,-13.9 3.5,-10.5 3.4,-8.8 3.5,-7.5 3.4,-6.7 3.5,-6.1 3.5,-5.5 3.4,-5.1 3.5,-4.8 3.4,-4.4 3.5,-4.1 3.4,-3.9 3.5,-3.7 3.4,-3.4 3.5,-3.3 3.4,-3.1 3.5,-2.9 3.4,-2.8 3.5,-2.6 3.4,-2.5 3.5,-2.4 3.4,-2.2 3.5,-2.1 3.5,-2.1 3.4,-1.9 3.5,-1.8 3.4,-1.7 3.5,-1.6 3.4,-1.5 3.5,-1.5 3.4,-1.3 3.5,-1.3 3.4,-1.2 3.5,-1.1 3.4,-1 3.5,-0.9 3.4,-0.9 3.5,-0.8 3.4,-0.7 3.5,-0.6 3.5,-0.6 3.4,-0.5 3.5,-0.4 3.4,-0.4 3.5,-0.2 3.4,-0.3 3.5,-0.1 3.4,-0.1 3.5,0 3.4,0.1 3.5,0.1 3.4,0.3 3.5,0.2 3.4,0.4 3.5,0.4 3.4,0.5 3.5,0.6 3.5,0.6 3.4,0.7 3.5,0.8 3.4,0.9 3.5,0.9 3.4,1 3.5,1.1 3.4,1.2 3.5,1.3 3.4,1.3 3.5,1.5 3.4,1.5 3.5,1.6 3.4,1.7 3.5,1.8 3.4,1.9 3.5,2.1 3.5,2.1 3.4,2.2 3.5,2.4 3.4,2.5 3.5,2.6 3.4,2.8 3.5,2.9 3.4,3.1 3.5,3.3 3.4,3.4 3.5,3.7 3.4,3.9 3.5,4.1 3.4,4.4 3.5,4.8 3.4,5.1 3.5,5.5 3.5,6.1 3.4,6.7 3.5,7.5 3.4,8.8 3.5,10.5 3.4,13.9 3.5,34.1"
         id="path140"
         style="stroke:#000000;stroke-opacity:1"
         inkscape:connector-curvature="0" />
    </g>
  </a>
  <a
     xlink:title="Plot #6"
     id="a142"
     style="stroke:#000000;stroke-opacity:1"
     transform="translate(-19.164948,0.58292717)">
    <g
       style="color:#000094;fill:none;stroke:#000000;stroke-width:2;stroke-linecap:butt;stroke-linejoin:miter;stroke-opacity:1"
       id="g144">
      <path
         d="m 149.7,230.4 3.5,34.1 3.4,13.9 3.5,10.5 3.4,8.8 3.5,7.5 3.4,6.7 3.5,6.1 3.5,5.5 3.4,5.1 3.5,4.8 3.4,4.4 3.5,4.1 3.4,3.9 3.5,3.7 3.4,3.4 3.5,3.3 3.4,3.1 3.5,2.9 3.4,2.8 3.5,2.6 3.4,2.5 3.5,2.4 3.4,2.2 3.5,2.1 3.5,2.1 3.4,1.9 3.5,1.8 3.4,1.7 3.5,1.6 3.4,1.5 3.5,1.5 3.4,1.3 3.5,1.3 3.4,1.2 3.5,1.1 3.4,1 3.5,0.9 3.4,0.9 3.5,0.8 3.4,0.7 3.5,0.6 3.5,0.6 3.4,0.5 3.5,0.4 3.4,0.4 3.5,0.2 3.4,0.3 3.5,0.1 3.4,0.1 3.5,0 3.4,-0.1 3.5,-0.1 3.4,-0.3 3.5,-0.2 3.4,-0.4 3.5,-0.4 3.4,-0.5 3.5,-0.6 3.5,-0.6 3.4,-0.7 3.5,-0.8 3.4,-0.9 3.5,-0.9 3.4,-1 3.5,-1.1 3.4,-1.2 3.5,-1.3 3.4,-1.3 3.5,-1.5 3.4,-1.5 3.5,-1.6 3.4,-1.7 3.5,-1.8 3.4,-1.9 3.5,-2.1 3.5,-2.1 3.4,-2.2 3.5,-2.4 3.4,-2.5 3.5,-2.6 3.4,-2.8 3.5,-2.9 3.4,-3.1 3.5,-3.3 3.4,-3.4 3.5,-3.7 3.4,-3.9 3.5,-4.1 3.4,-4.4 3.5,-4.8 3.4,-5.1 3.5,-5.5 3.5,-6.1 3.4,-6.7 3.5,-7.5 3.4,-8.8 3.5,-10.5 3.4,-13.9 3.5,-34.1"
         id="path146"
         style="stroke:#000000;stroke-opacity:1"
         inkscape:connector-curvature="0" />
    </g>
  </a>
  <a
     xlink:title="Plot #7"
     id="a148"
     style="stroke:#000000;stroke-opacity:1"
     transform="translate(-19.164948,0.58292717)">
    <g
       style="color:#ff7700;fill:none;stroke:#000000;stroke-width:2;stroke-linecap:butt;stroke-linejoin:miter;stroke-opacity:1"
       id="g150">
      <path
         d="m 149.7,229.2 3.5,-65.5 3.4,-16.8 3.5,-11.4 3.4,-8.9 3.5,-7.2 3.4,-6.1 3.5,-5.3 3.5,-4.7 3.4,-4.1 3.5,-3.8 3.4,-3.3 3.5,-3.1 3.4,-2.7 3.5,-2.6 3.4,-2.3 3.5,-2.1 3.4,-1.9 3.5,-1.8 3.4,-1.6 3.5,-1.5 3.4,-1.4 3.5,-1.3 3.4,-1.1 3.5,-1.1 3.5,-1 3.4,-0.8 3.5,-0.8 3.4,-0.8 3.5,-0.6 3.4,-0.6 3.5,-0.5 3.4,-0.5 3.5,-0.4 3.4,-0.4 3.5,-0.3 3.4,-0.3 3.5,-0.2 3.4,-0.3 3.5,-0.1 3.4,-0.2 3.5,-0.1 3.5,-0.1 3.4,0 3.5,-0.1 3.4,0 3.5,0 3.4,-0.1 3.5,0 3.4,0 3.5,0 3.4,0 3.5,0 3.4,0.1 3.5,0 3.4,0 3.5,0.1 3.4,0 3.5,0.1 3.5,0.1 3.4,0.2 3.5,0.1 3.4,0.3 3.5,0.2 3.4,0.3 3.5,0.3 3.4,0.4 3.5,0.4 3.4,0.5 3.5,0.5 3.4,0.6 3.5,0.6 3.4,0.8 3.5,0.8 3.4,0.8 3.5,1 3.5,1.1 3.4,1.1 3.5,1.3 3.4,1.4 3.5,1.5 3.4,1.6 3.5,1.8 3.4,1.9 3.5,2.1 3.4,2.3 3.5,2.6 3.4,2.7 3.5,3.1 3.4,3.3 3.5,3.8 3.4,4.1 3.5,4.7 3.5,5.3 3.4,6.1 3.5,7.2 3.4,8.9 3.5,11.4 3.4,16.8 3.5,65.5"
         id="path152"
         style="stroke:#000000;stroke-opacity:1"
         inkscape:connector-curvature="0" />
    </g>
  </a>
  <a
     xlink:title="Plot #8"
     id="a154"
     style="stroke:#000000;stroke-opacity:1"
     transform="translate(-19.164948,0.58292717)">
    <g
       style="color:#0099a1;fill:none;stroke:#000000;stroke-width:2;stroke-linecap:butt;stroke-linejoin:miter;stroke-opacity:1"
       id="g156">
      <path
         d="m 149.7,231.5 3.5,65.5 3.4,16.8 3.5,11.4 3.4,8.9 3.5,7.2 3.4,6.1 3.5,5.3 3.5,4.7 3.4,4.1 3.5,3.8 3.4,3.3 3.5,3.1 3.4,2.7 3.5,2.6 3.4,2.3 3.5,2.1 3.4,1.9 3.5,1.8 3.4,1.6 3.5,1.5 3.4,1.4 3.5,1.3 3.4,1.1 3.5,1.1 3.5,1 3.4,0.8 3.5,0.8 3.4,0.8 3.5,0.6 3.4,0.6 3.5,0.5 3.4,0.5 3.5,0.4 3.4,0.4 3.5,0.3 3.4,0.3 3.5,0.2 3.4,0.3 3.5,0.1 3.4,0.2 3.5,0.1 3.5,0.1 3.4,0 3.5,0.1 3.4,0 3.5,0 3.4,0.1 3.5,0 3.4,0 3.5,0 3.4,0 3.5,0 3.4,-0.1 3.5,0 3.4,0 3.5,-0.1 3.4,0 3.5,-0.1 3.5,-0.1 3.4,-0.2 3.5,-0.1 3.4,-0.3 3.5,-0.2 3.4,-0.3 3.5,-0.3 3.4,-0.4 3.5,-0.4 3.4,-0.5 3.5,-0.5 3.4,-0.6 3.5,-0.6 3.4,-0.8 3.5,-0.8 3.4,-0.8 3.5,-1 3.5,-1.1 3.4,-1.1 3.5,-1.3 3.4,-1.4 3.5,-1.5 3.4,-1.6 3.5,-1.8 3.4,-1.9 3.5,-2.1 3.4,-2.3 3.5,-2.6 3.4,-2.7 3.5,-3.1 3.4,-3.3 3.5,-3.8 3.4,-4.1 3.5,-4.7 3.5,-5.3 3.4,-6.1 3.5,-7.2 3.4,-8.9 3.5,-11.4 3.4,-16.8 3.5,-65.5"
         id="path158"
         style="stroke:#000000;stroke-opacity:1"
         inkscape:connector-curvature="0" />
    </g>
  </a>
  <a
     xlink:title="Plot #9"
     id="a160"
     style="stroke:#000000;stroke-opacity:1"
     transform="translate(-19.164948,0.58292717)">
    <g
       style="color:#d6d645;fill:none;stroke:#000000;stroke-width:2;stroke-linecap:butt;stroke-linejoin:miter;stroke-opacity:1"
       id="g162">
      <path
         d="m 149.7,214.7 3.5,-103.6 3.4,-13.5 3.5,-8.1 3.4,-5.7 3.5,-4.3 3.4,-3.4 3.5,-2.7 3.5,-2.2 3.4,-1.9 3.5,-1.6 3.4,-1.3 3.5,-1.1 3.4,-1 3.5,-0.8 3.4,-0.6 3.5,-0.6 3.4,-0.5 3.5,-0.4 3.4,-0.4 3.5,-0.3 3.4,-0.2 3.5,-0.2 3.4,-0.2 3.5,-0.1 3.5,-0.1 3.4,-0.1 3.5,-0.1 3.4,-0.1 3.5,0 3.4,-0.1 3.5,0 3.4,0 3.5,0 3.4,0 3.5,-0.1 3.4,0 3.5,0 3.4,0 3.5,0 3.4,0 3.5,0 3.5,0 3.4,0 3.5,0 3.4,0 3.5,0 3.4,0 3.5,0 3.4,0 3.5,0 3.4,0 3.5,0 3.4,0 3.5,0 3.4,0 3.5,0 3.4,0 3.5,0 3.5,0 3.4,0 3.5,0 3.4,0 3.5,0 3.4,0 3.5,0.1 3.4,0 3.5,0 3.4,0 3.5,0 3.4,0.1 3.5,0 3.4,0.1 3.5,0.1 3.4,0.1 3.5,0.1 3.5,0.1 3.4,0.2 3.5,0.2 3.4,0.2 3.5,0.3 3.4,0.4 3.5,0.4 3.4,0.5 3.5,0.6 3.4,0.6 3.5,0.8 3.4,1 3.5,1.1 3.4,1.3 3.5,1.6 3.4,1.9 3.5,2.2 3.5,2.7 3.4,3.4 3.5,4.3 3.4,5.7 3.5,8.1 3.4,13.5 3.5,103.6"
         id="path164"
         style="stroke:#000000;stroke-opacity:1"
         inkscape:connector-curvature="0" />
    </g>
  </a>
  <a
     xlink:title="Plot #10"
     id="a166"
     style="stroke:#000000;stroke-opacity:1"
     transform="translate(-19.164948,0.58292717)">
    <g
       style="color:#a391ff;fill:none;stroke:#000000;stroke-width:2;stroke-linecap:butt;stroke-linejoin:miter;stroke-opacity:1"
       id="g168">
      <path
         d="m 149.7,246 3.5,103.6 3.4,13.5 3.5,8.1 3.4,5.7 3.5,4.3 3.4,3.4 3.5,2.7 3.5,2.2 3.4,1.9 3.5,1.6 3.4,1.3 3.5,1.1 3.4,1 3.5,0.8 3.4,0.6 3.5,0.6 3.4,0.5 3.5,0.4 3.4,0.4 3.5,0.3 3.4,0.2 3.5,0.2 3.4,0.2 3.5,0.1 3.5,0.1 3.4,0.1 3.5,0.1 3.4,0.1 3.5,0 3.4,0.1 3.5,0 3.4,0 3.5,0 3.4,0 3.5,0.1 3.4,0 3.5,0 3.4,0 3.5,0 3.4,0 3.5,0 3.5,0 3.4,0 3.5,0 3.4,0 3.5,0 3.4,0 3.5,0 3.4,0 3.5,0 3.4,0 3.5,0 3.4,0 3.5,0 3.4,0 3.5,0 3.4,0 3.5,0 3.5,0 3.4,0 3.5,0 3.4,0 3.5,0 3.4,0 3.5,-0.1 3.4,0 3.5,0 3.4,0 3.5,0 3.4,-0.1 3.5,0 3.4,-0.1 3.5,-0.1 3.4,-0.1 3.5,-0.1 3.5,-0.1 3.4,-0.2 3.5,-0.2 3.4,-0.2 3.5,-0.3 3.4,-0.4 3.5,-0.4 3.4,-0.5 3.5,-0.6 3.4,-0.6 3.5,-0.8 3.4,-1 3.5,-1.1 3.4,-1.3 3.5,-1.6 3.4,-1.9 3.5,-2.2 3.5,-2.7 3.4,-3.4 3.5,-4.3 3.4,-5.7 3.5,-8.1 3.4,-13.5 3.5,-103.6"
         id="path170"
         style="stroke:#000000;stroke-opacity:1"
         inkscape:connector-curvature="0" />
    </g>
  </a>
  <a
     xlink:title="Plot #11"
     id="a172"
     style="stroke:#000000;stroke-opacity:1"
     transform="translate(-19.164948,0.58292717)">
    <g
       style="color:#ffcc00;fill:none;stroke:#000000;stroke-width:2;stroke-linecap:butt;stroke-linejoin:miter;stroke-opacity:1"
       id="g174">
      <path
         d="m 149.7,59.4 3.5,0 3.4,0 3.5,0 3.4,0 3.5,0 3.4,0 3.5,0 3.5,0 3.4,0 3.5,0 3.4,0 3.5,0 3.4,0 3.5,0 3.4,0 3.5,0 3.4,0 3.5,0 3.4,0 3.5,0 3.4,0 3.5,0 3.4,0 3.5,0 3.5,0 3.4,0 3.5,0 3.4,0 3.5,0 3.4,0 3.5,0 3.4,0 3.5,0 3.4,0 3.5,0 3.4,0 3.5,0 3.4,0 3.5,0 3.4,0 3.5,0 3.5,0 3.4,0 3.5,0 3.4,0 3.5,0 3.4,0 3.5,0 3.4,0 3.5,0 3.4,0 3.5,0 3.4,0 3.5,0 3.4,0 3.5,0 3.4,0 3.5,0 3.5,0 3.4,0 3.5,0 3.4,0 3.5,0 3.4,0 3.5,0 3.4,0 3.5,0 3.4,0 3.5,0 3.4,0 3.5,0 3.4,0 3.5,0 3.4,0 3.5,0 3.5,0 3.4,0 3.5,0 3.4,0 3.5,0 3.4,0 3.5,0 3.4,0 3.5,0 3.4,0 3.5,0 3.4,0 3.5,0 3.4,0 3.5,0 3.4,0 3.5,0 3.5,0 3.4,0 3.5,0 3.4,0 3.5,0 3.4,0 3.5,0"
         id="path176"
         style="stroke:#000000;stroke-opacity:1"
         inkscape:connector-curvature="0" />
    </g>
  </a>
  <a
     xlink:title="Plot #12"
     id="a178"
     style="stroke:#000000;stroke-opacity:1"
     transform="translate(-19.164948,0.58292717)">
    <g
       style="color:#d60078;fill:none;stroke:#000000;stroke-width:2;stroke-linecap:butt;stroke-linejoin:miter;stroke-opacity:1"
       id="g180">
      <path
         d="m 491.6,401.3 0,-3.5 0,-3.4 0,-3.5 0,-3.4 0,-3.5 0,-3.4 0,-3.5 0,-3.5 0,-3.4 0,-3.5 0,-3.4 0,-3.5 0,-3.4 0,-3.5 0,-3.4 0,-3.5 0,-3.4 0,-3.5 0,-3.4 0,-3.5 0,-3.4 0,-3.5 0,-3.4 0,-3.5 0,-3.5 0,-3.4 0,-3.5 0,-3.4 0,-3.5 0,-3.4 0,-3.5 0,-3.4 0,-3.5 0,-3.4 0,-3.5 0,-3.4 0,-3.5 0,-3.4 0,-3.5 0,-3.4 0,-3.5 0,-3.5 0,-3.4 0,-3.5 0,-3.4 0,-3.5 0,-3.4 0,-3.5 0,-3.4 0,-3.5 0,-3.4 0,-3.5 0,-3.4 0,-3.5 0,-3.4 0,-3.5 0,-3.4 0,-3.5 0,-3.5 0,-3.4 0,-3.5 0,-3.4 0,-3.5 0,-3.4 0,-3.5 0,-3.4 0,-3.5 0,-3.4 0,-3.5 0,-3.4 0,-3.5 0,-3.4 0,-3.5 0,-3.4 0,-3.5 0,-3.5 0,-3.4 0,-3.5 0,-3.4 0,-3.5 0,-3.4 0,-3.5 0,-3.4 0,-3.5 0,-3.4 0,-3.5 0,-3.4 0,-3.5 0,-3.4 0,-3.5 0,-3.4 0,-3.5 0,-3.5 0,-3.4 0,-3.5 0,-3.4 0,-3.5 0,-3.4 0,-3.5"
         id="path182"
         style="stroke:#000000;stroke-opacity:1"
         inkscape:connector-curvature="0" />
    </g>
  </a>
  <a
     xlink:title="Plot #13"
     id="a184"
     style="stroke:#000000;stroke-opacity:1"
     transform="translate(-19.164948,0.58292717)">
    <g
       style="color:#abd600;fill:none;stroke:#000000;stroke-width:2;stroke-linecap:butt;stroke-linejoin:miter;stroke-opacity:1"
       id="g186">
      <path
         d="m 149.7,401.3 3.5,0 3.4,0 3.5,0 3.4,0 3.5,0 3.4,0 3.5,0 3.5,0 3.4,0 3.5,0 3.4,0 3.5,0 3.4,0 3.5,0 3.4,0 3.5,0 3.4,0 3.5,0 3.4,0 3.5,0 3.4,0 3.5,0 3.4,0 3.5,0 3.5,0 3.4,0 3.5,0 3.4,0 3.5,0 3.4,0 3.5,0 3.4,0 3.5,0 3.4,0 3.5,0 3.4,0 3.5,0 3.4,0 3.5,0 3.4,0 3.5,0 3.5,0 3.4,0 3.5,0 3.4,0 3.5,0 3.4,0 3.5,0 3.4,0 3.5,0 3.4,0 3.5,0 3.4,0 3.5,0 3.4,0 3.5,0 3.4,0 3.5,0 3.5,0 3.4,0 3.5,0 3.4,0 3.5,0 3.4,0 3.5,0 3.4,0 3.5,0 3.4,0 3.5,0 3.4,0 3.5,0 3.4,0 3.5,0 3.4,0 3.5,0 3.5,0 3.4,0 3.5,0 3.4,0 3.5,0 3.4,0 3.5,0 3.4,0 3.5,0 3.4,0 3.5,0 3.4,0 3.5,0 3.4,0 3.5,0 3.4,0 3.5,0 3.5,0 3.4,0 3.5,0 3.4,0 3.5,0 3.4,0 3.5,0"
         id="path188"
         style="stroke:#000000;stroke-opacity:1"
         inkscape:connector-curvature="0" />
    </g>
  </a>
  <a
     xlink:title="Plot #14"
     id="a190"
     style="stroke:#000000;stroke-opacity:1"
     transform="translate(-19.164948,0.58292717)">
    <g
       style="color:#ff0000;fill:none;stroke:#000000;stroke-width:2;stroke-linecap:butt;stroke-linejoin:miter;stroke-opacity:1"
       id="g192">
      <path
         d="m 149.7,401.3 0,-3.5 0,-3.4 0,-3.5 0,-3.4 0,-3.5 0,-3.4 0,-3.5 0,-3.5 0,-3.4 0,-3.5 0,-3.4 0,-3.5 0,-3.4 0,-3.5 0,-3.4 0,-3.5 0,-3.4 0,-3.5 0,-3.4 0,-3.5 0,-3.4 0,-3.5 0,-3.4 0,-3.5 0,-3.5 0,-3.4 0,-3.5 0,-3.4 0,-3.5 0,-3.4 0,-3.5 0,-3.4 0,-3.5 0,-3.4 0,-3.5 0,-3.4 0,-3.5 0,-3.4 0,-3.5 0,-3.4 0,-3.5 0,-3.5 0,-3.4 0,-3.5 0,-3.4 0,-3.5 0,-3.4 0,-3.5 0,-3.4 0,-3.5 0,-3.4 0,-3.5 0,-3.4 0,-3.5 0,-3.4 0,-3.5 0,-3.4 0,-3.5 0,-3.5 0,-3.4 0,-3.5 0,-3.4 0,-3.5 0,-3.4 0,-3.5 0,-3.4 0,-3.5 0,-3.4 0,-3.5 0,-3.4 0,-3.5 0,-3.4 0,-3.5 0,-3.4 0,-3.5 0,-3.5 0,-3.4 0,-3.5 0,-3.4 0,-3.5 0,-3.4 0,-3.5 0,-3.4 0,-3.5 0,-3.4 0,-3.5 0,-3.4 0,-3.5 0,-3.4 0,-3.5 0,-3.4 0,-3.5 0,-3.5 0,-3.4 0,-3.5 0,-3.4 0,-3.5 0,-3.4 0,-3.5"
         id="path194"
         style="stroke:#000000;stroke-opacity:1"
         inkscape:connector-curvature="0" />
    </g>
  </a>
  <g
     style="color:#000000;fill:none;stroke:currentColor;stroke-width:2;stroke-linecap:butt;stroke-linejoin:miter"
     id="g196"
     transform="translate(-19.164948,0.58292717)" />
</svg>
